<svg xmlns="http://www.w3.org/2000/svg" xmlns:xlink="http://www.w3.org/1999/xlink" width="500" zoomAndPan="magnify" viewBox="0 0 375 374.999991" height="500" preserveAspectRatio="xMidYMid meet" version="1.0"><defs><clipPath id="8313d202c8"><path d="M 113 124 L 126 124 L 126 179 L 113 179 Z M 113 124 " clip-rule="nonzero"/></clipPath><clipPath id="93a61f26dd"><path d="M 114.109375 178.332031 L 112.496094 125.105469 L 123.742188 124.765625 L 125.351562 177.992188 Z M 114.109375 178.332031 " clip-rule="nonzero"/></clipPath><clipPath id="da0c9739a3"><path d="M 114.109375 178.332031 L 112.496094 125.105469 L 123.742188 124.765625 L 125.351562 177.992188 Z M 114.109375 178.332031 " clip-rule="nonzero"/></clipPath><clipPath id="2e901bf000"><path d="M 114.109375 178.332031 L 112.496094 125.105469 L 123.742188 124.765625 L 125.351562 177.992188 Z M 114.109375 178.332031 " clip-rule="nonzero"/></clipPath><clipPath id="ec7425d45d"><path d="M 114.046875 178.332031 L 112.4375 125.109375 L 123.671875 124.769531 L 125.28125 177.992188 Z M 114.046875 178.332031 " clip-rule="nonzero"/></clipPath><clipPath id="f034d4bb4f"><path d="M 112.5 185.027344 L 197.25 185.027344 L 197.25 206 L 112.5 206 Z M 112.5 185.027344 " clip-rule="nonzero"/></clipPath><clipPath id="aa8fc9b945"><path d="M 180 125 L 196 125 L 196 185 L 180 185 Z M 180 125 " clip-rule="nonzero"/></clipPath><clipPath id="34789401fe"><path d="M 193.871094 124.945312 L 196.535156 184.136719 L 181.550781 184.8125 L 178.886719 125.621094 Z M 193.871094 124.945312 " clip-rule="nonzero"/></clipPath><clipPath id="e60657220d"><path d="M 193.871094 124.945312 L 196.535156 184.136719 L 181.550781 184.8125 L 178.886719 125.621094 Z M 193.871094 124.945312 " clip-rule="nonzero"/></clipPath><clipPath id="e7f1700a63"><path d="M 193.871094 124.945312 L 196.535156 184.136719 L 181.550781 184.8125 L 178.886719 125.621094 Z M 193.871094 124.945312 " clip-rule="nonzero"/></clipPath><clipPath id="73891d1ef4"><path d="M 128.273438 149.726562 L 182.273438 149.726562 L 182.273438 160.902344 L 128.273438 160.902344 Z M 128.273438 149.726562 " clip-rule="nonzero"/></clipPath><clipPath id="dc7a8d2894"><path d="M 196 141 L 212 141 L 212 201 L 196 201 Z M 196 141 " clip-rule="nonzero"/></clipPath><clipPath id="d6c6414ccd"><path d="M 209.648438 140.722656 L 212.308594 199.910156 L 197.324219 200.585938 L 194.664062 141.394531 Z M 209.648438 140.722656 " clip-rule="nonzero"/></clipPath><clipPath id="6d8ece7466"><path d="M 209.648438 140.722656 L 212.308594 199.910156 L 197.324219 200.585938 L 194.664062 141.394531 Z M 209.648438 140.722656 " clip-rule="nonzero"/></clipPath><clipPath id="aed93e524f"><path d="M 209.648438 140.722656 L 212.308594 199.910156 L 197.324219 200.585938 L 194.664062 141.394531 Z M 209.648438 140.722656 " clip-rule="nonzero"/></clipPath><clipPath id="dc0c9b1631"><path d="M 125 136 L 138 136 L 138 191 L 125 191 Z M 125 136 " clip-rule="nonzero"/></clipPath><clipPath id="8f6895a78d"><path d="M 126.109375 190.332031 L 124.496094 137.105469 L 135.742188 136.765625 L 137.351562 189.992188 Z M 126.109375 190.332031 " clip-rule="nonzero"/></clipPath><clipPath id="09adf5aefe"><path d="M 126.109375 190.332031 L 124.496094 137.105469 L 135.742188 136.765625 L 137.351562 189.992188 Z M 126.109375 190.332031 " clip-rule="nonzero"/></clipPath><clipPath id="59a841dbed"><path d="M 126.109375 190.332031 L 124.496094 137.105469 L 135.742188 136.765625 L 137.351562 189.992188 Z M 126.109375 190.332031 " clip-rule="nonzero"/></clipPath><clipPath id="a8c1fdc486"><path d="M 126.046875 190.332031 L 124.4375 137.109375 L 135.671875 136.769531 L 137.28125 189.992188 Z M 126.046875 190.332031 " clip-rule="nonzero"/></clipPath><clipPath id="0600772e19"><path d="M 124.5 197.027344 L 209.25 197.027344 L 209.25 218 L 124.5 218 Z M 124.5 197.027344 " clip-rule="nonzero"/></clipPath><clipPath id="fd97b6108b"><path d="M 192 137 L 208 137 L 208 197 L 192 197 Z M 192 137 " clip-rule="nonzero"/></clipPath><clipPath id="f6fbcd8ee8"><path d="M 205.871094 136.945312 L 208.535156 196.136719 L 193.550781 196.8125 L 190.886719 137.621094 Z M 205.871094 136.945312 " clip-rule="nonzero"/></clipPath><clipPath id="1a210d658e"><path d="M 205.871094 136.945312 L 208.535156 196.136719 L 193.550781 196.8125 L 190.886719 137.621094 Z M 205.871094 136.945312 " clip-rule="nonzero"/></clipPath><clipPath id="b2c21bb07d"><path d="M 205.871094 136.945312 L 208.535156 196.136719 L 193.550781 196.8125 L 190.886719 137.621094 Z M 205.871094 136.945312 " clip-rule="nonzero"/></clipPath><clipPath id="5b0863f6e4"><path d="M 140.273438 161.726562 L 194.273438 161.726562 L 194.273438 172.902344 L 140.273438 172.902344 Z M 140.273438 161.726562 " clip-rule="nonzero"/></clipPath><clipPath id="fc61a4ef15"><path d="M 208 153 L 224 153 L 224 213 L 208 213 Z M 208 153 " clip-rule="nonzero"/></clipPath><clipPath id="248569aace"><path d="M 221.648438 152.722656 L 224.308594 211.910156 L 209.324219 212.585938 L 206.664062 153.394531 Z M 221.648438 152.722656 " clip-rule="nonzero"/></clipPath><clipPath id="0dfce2ba37"><path d="M 221.648438 152.722656 L 224.308594 211.910156 L 209.324219 212.585938 L 206.664062 153.394531 Z M 221.648438 152.722656 " clip-rule="nonzero"/></clipPath><clipPath id="0d03728b03"><path d="M 221.648438 152.722656 L 224.308594 211.910156 L 209.324219 212.585938 L 206.664062 153.394531 Z M 221.648438 152.722656 " clip-rule="nonzero"/></clipPath></defs><g clip-path="url(#8313d202c8)"><g clip-path="url(#93a61f26dd)"><g clip-path="url(#da0c9739a3)"><g clip-path="url(#2e901bf000)"><g clip-path="url(#ec7425d45d)"><path fill="#e6c7bd" d="M 116.136719 177.144531 C 117.496094 178.394531 120.988281 178.160156 122.730469 177.316406 C 124.027344 176.6875 124.347656 175.097656 124.5625 173.875 C 125.320312 169.542969 125.113281 165.113281 124.914062 160.75 C 124.613281 154.105469 124.179688 147.46875 123.890625 140.824219 C 123.753906 137.710938 123.707031 134.59375 123.636719 131.480469 C 123.605469 130.175781 123.769531 128.796875 123.28125 127.539062 C 122.433594 125.378906 119.648438 124.992188 117.585938 124.875 C 116.648438 124.820312 115.347656 124.65625 114.691406 125.542969 C 113.683594 126.910156 113.742188 128.722656 113.632812 130.300781 C 113.300781 135.296875 113.265625 135.273438 113.269531 140.304688 C 113.269531 144.230469 113.332031 150.320312 113.546875 154.242188 C 113.6875 156.835938 113.921875 159.421875 114.128906 162.011719 C 114.335938 164.597656 114.09375 166.933594 114.261719 169.519531 C 114.429688 172.132812 114.726562 175.847656 116.136719 177.144531 Z M 116.136719 177.144531 " fill-opacity="1" fill-rule="evenodd"/></g></g></g></g></g><g clip-path="url(#f034d4bb4f)"><path fill="#d3a8cd" d="M 195.894531 201.242188 C 192.3125 201.328125 188.746094 201.363281 185.164062 201.382812 C 181.929688 201.257812 178.695312 201.171875 175.445312 201.085938 C 174.402344 201.050781 173.375 201.03125 172.332031 201 C 174.835938 201.050781 177.339844 201.085938 179.84375 201.121094 C 183.929688 201.171875 188 201.191406 192.085938 201.15625 C 192.484375 201.15625 192.867188 201.136719 193.269531 201.136719 C 193.945312 201.121094 194.605469 200.546875 194.570312 199.832031 C 194.539062 199.117188 194 198.539062 193.269531 198.523438 C 190.640625 198.472656 188.015625 198.4375 185.390625 198.417969 C 185.390625 198.382812 185.390625 198.332031 185.390625 198.296875 C 185.375 197.914062 185.234375 197.601562 184.992188 197.375 C 185.808594 197.320312 186.609375 197.269531 187.425781 197.214844 C 187.703125 197.199219 187.980469 197.179688 188.242188 197.164062 C 189.058594 197.164062 189.878906 197.179688 190.695312 197.179688 C 191.113281 197.179688 191.527344 197.179688 191.945312 197.179688 C 192.625 197.179688 193.285156 196.570312 193.25 195.875 C 193.214844 195.140625 192.675781 194.601562 191.945312 194.566406 C 191.894531 194.566406 191.84375 194.566406 191.789062 194.566406 C 192.347656 194.445312 192.832031 193.851562 192.796875 193.277344 C 192.765625 192.511719 192.226562 192.039062 191.496094 191.96875 C 190.992188 191.933594 190.484375 191.882812 189.980469 191.847656 C 190.050781 191.707031 190.085938 191.550781 190.085938 191.378906 C 190.816406 191.414062 191.546875 191.429688 192.277344 191.464844 C 192.710938 191.480469 193.144531 191.5 193.582031 191.535156 C 194.222656 191.570312 194.78125 191.011719 194.867188 190.402344 C 194.953125 189.757812 194.554688 189.148438 193.929688 188.972656 C 193.390625 188.816406 192.867188 188.675781 192.328125 188.554688 C 192.347656 187.996094 191.980469 187.335938 191.390625 187.246094 C 187.597656 186.6875 183.757812 186.359375 179.929688 186.097656 C 175.113281 185.765625 170.296875 185.554688 165.480469 185.398438 C 160.300781 185.242188 155.101562 185.15625 149.917969 185.121094 C 145.015625 185.101562 140.09375 185.136719 135.191406 185.261719 C 131.261719 185.363281 127.332031 185.503906 123.417969 185.816406 C 123.039062 185.851562 122.65625 185.886719 122.273438 185.921875 C 121.679688 185.972656 121.089844 186.359375 120.984375 186.96875 C 120.949219 186.96875 120.898438 186.96875 120.863281 186.984375 C 120.1875 187.039062 119.523438 187.542969 119.558594 188.292969 C 119.578125 188.625 119.699219 188.921875 119.890625 189.148438 C 119.507812 189.164062 119.109375 189.199219 118.726562 189.214844 C 118.046875 189.269531 117.386719 189.792969 117.421875 190.523438 C 117.457031 191.238281 117.996094 191.8125 118.726562 191.832031 C 120.394531 191.867188 122.0625 191.917969 123.734375 191.953125 C 122.601562 192.023438 121.472656 192.109375 120.34375 192.195312 C 119.925781 192.230469 119.523438 192.265625 119.109375 192.300781 C 118.429688 192.371094 117.769531 192.859375 117.804688 193.609375 C 117.820312 193.972656 117.960938 194.269531 118.167969 194.496094 C 117.90625 194.742188 117.75 195.074219 117.769531 195.4375 C 117.804688 196.1875 118.34375 196.695312 119.074219 196.746094 C 119.613281 196.78125 120.152344 196.816406 120.707031 196.851562 C 120.707031 196.902344 120.707031 196.9375 120.707031 196.988281 C 120.726562 197.375 120.863281 197.667969 121.074219 197.878906 C 120.34375 197.929688 119.59375 197.964844 118.863281 198.019531 C 118.464844 198.054688 118.082031 198.070312 117.683594 198.105469 C 117.019531 198.15625 116.5 198.558594 116.394531 199.238281 C 116.324219 199.707031 116.535156 200.195312 116.917969 200.476562 C 116.984375 200.5625 117.074219 200.648438 117.175781 200.71875 C 116.5 200.703125 115.839844 200.703125 115.160156 200.683594 C 114.726562 200.683594 114.289062 200.667969 113.839844 200.667969 C 113.160156 200.648438 112.5 201.277344 112.535156 201.972656 C 112.570312 202.707031 113.109375 203.265625 113.839844 203.28125 C 117.871094 203.402344 121.90625 203.507812 125.941406 203.613281 C 131.019531 203.753906 136.097656 203.890625 141.191406 204.03125 C 146.652344 204.1875 152.109375 204.363281 157.570312 204.535156 C 162.75 204.710938 167.933594 204.902344 173.113281 205.128906 C 177.289062 205.320312 181.480469 205.53125 185.652344 205.808594 C 186.070312 205.84375 186.488281 205.859375 186.902344 205.894531 C 187.582031 205.949219 188.242188 205.25 188.207031 204.589844 C 188.207031 204.414062 188.171875 204.257812 188.105469 204.117188 C 188.453125 204.117188 188.816406 204.136719 189.164062 204.136719 C 189.40625 204.136719 189.632812 204.066406 189.84375 203.945312 C 191.441406 203.925781 193.042969 203.910156 194.660156 203.875 C 195.078125 203.855469 195.492188 203.855469 195.910156 203.839844 C 196.589844 203.820312 197.25 203.246094 197.214844 202.53125 C 197.164062 201.851562 196.625 201.207031 195.894531 201.242188 Z M 179.914062 194.183594 C 174.855469 194.078125 169.792969 194.007812 164.734375 193.957031 C 161.5 193.921875 158.25 193.90625 155.015625 193.886719 C 154.804688 193.886719 154.578125 193.871094 154.371094 193.871094 C 156.476562 193.800781 158.5625 193.730469 160.664062 193.679688 C 161.273438 193.679688 161.898438 193.679688 162.507812 193.679688 C 167.636719 193.695312 172.765625 193.765625 177.878906 193.90625 C 182.019531 194.027344 186.171875 194.167969 190.3125 194.460938 C 190.398438 194.460938 190.484375 194.480469 190.574219 194.480469 C 187.007812 194.359375 183.460938 194.269531 179.914062 194.183594 Z M 179.914062 194.183594 " fill-opacity="1" fill-rule="nonzero"/></g><g clip-path="url(#aa8fc9b945)"><g clip-path="url(#34789401fe)"><g clip-path="url(#e60657220d)"><g clip-path="url(#e7f1700a63)"><path fill="#d3a8cd" d="M 184.921875 183.710938 C 184.75 181.210938 184.609375 178.722656 184.484375 176.222656 C 184.472656 173.960938 184.433594 171.699219 184.390625 169.421875 C 184.382812 168.695312 184.363281 167.976562 184.355469 167.246094 C 184.398438 168.996094 184.453125 170.746094 184.503906 172.496094 C 184.597656 175.351562 184.710938 178.195312 184.867188 181.046875 C 184.878906 181.328125 184.902344 181.59375 184.914062 181.871094 C 184.949219 182.347656 185.378906 182.789062 185.886719 182.742188 C 186.398438 182.695312 186.789062 182.300781 186.78125 181.789062 C 186.734375 179.953125 186.675781 178.117188 186.605469 176.285156 C 186.632812 176.285156 186.667969 176.28125 186.695312 176.28125 C 186.96875 176.257812 187.1875 176.148438 187.339844 175.972656 C 187.402344 176.539062 187.464844 177.097656 187.527344 177.667969 C 187.550781 177.859375 187.570312 178.054688 187.589844 178.234375 C 187.617188 178.808594 187.628906 179.378906 187.65625 179.949219 C 187.667969 180.238281 187.683594 180.53125 187.695312 180.824219 C 187.71875 181.296875 188.171875 181.738281 188.667969 181.691406 C 189.191406 181.644531 189.558594 181.25 189.558594 180.738281 C 189.558594 180.703125 189.558594 180.667969 189.554688 180.628906 C 189.660156 181.015625 190.097656 181.335938 190.507812 181.292969 C 191.054688 181.242188 191.371094 180.851562 191.398438 180.339844 C 191.40625 179.988281 191.429688 179.632812 191.4375 179.28125 C 191.539062 179.324219 191.652344 179.34375 191.777344 179.335938 C 191.773438 179.847656 191.785156 180.359375 191.785156 180.871094 C 191.785156 181.175781 191.785156 181.480469 191.773438 181.785156 C 191.769531 182.234375 192.1875 182.605469 192.625 182.644531 C 193.085938 182.6875 193.507812 182.386719 193.613281 181.945312 C 193.707031 181.5625 193.792969 181.195312 193.863281 180.8125 C 194.261719 180.808594 194.722656 180.53125 194.765625 180.117188 C 195.042969 177.449219 195.160156 174.757812 195.226562 172.074219 C 195.308594 168.703125 195.308594 165.332031 195.269531 161.960938 C 195.21875 158.335938 195.117188 154.703125 194.976562 151.082031 C 194.835938 147.660156 194.65625 144.222656 194.417969 140.800781 C 194.21875 138.0625 193.996094 135.320312 193.648438 132.597656 C 193.613281 132.332031 193.574219 132.066406 193.539062 131.800781 C 193.480469 131.390625 193.191406 130.988281 192.75 130.933594 C 192.75 130.910156 192.75 130.875 192.734375 130.851562 C 192.675781 130.378906 192.296875 129.933594 191.761719 129.980469 C 191.527344 130.003906 191.320312 130.097656 191.164062 130.242188 C 191.136719 129.972656 191.101562 129.695312 191.078125 129.429688 C 191.019531 128.957031 190.625 128.511719 190.101562 128.558594 C 189.59375 128.605469 189.199219 129.003906 189.210938 129.511719 C 189.238281 130.679688 189.253906 131.847656 189.28125 133.015625 C 189.195312 132.226562 189.097656 131.441406 189 130.652344 C 188.964844 130.363281 188.925781 130.085938 188.886719 129.796875 C 188.816406 129.324219 188.449219 128.878906 187.914062 128.925781 C 187.652344 128.949219 187.445312 129.058594 187.292969 129.210938 C 187.109375 129.035156 186.867188 128.9375 186.609375 128.960938 C 186.074219 129.007812 185.730469 129.402344 185.714844 129.914062 C 185.707031 130.289062 185.699219 130.667969 185.691406 131.058594 C 185.65625 131.058594 185.632812 131.0625 185.59375 131.0625 C 185.320312 131.085938 185.113281 131.195312 184.972656 131.347656 C 184.910156 130.839844 184.863281 130.316406 184.800781 129.808594 C 184.765625 129.53125 184.742188 129.265625 184.703125 128.984375 C 184.644531 128.527344 184.34375 128.175781 183.855469 128.125 C 183.515625 128.089844 183.175781 128.25 182.988281 128.527344 C 182.929688 128.578125 182.867188 128.640625 182.824219 128.71875 C 182.8125 128.242188 182.792969 127.78125 182.785156 127.308594 C 182.769531 127.003906 182.769531 126.699219 182.753906 126.382812 C 182.746094 125.910156 182.277344 125.46875 181.78125 125.515625 C 181.261719 125.5625 180.878906 125.957031 180.890625 126.46875 C 180.929688 129.289062 180.980469 132.109375 181.035156 134.929688 C 181.09375 138.480469 181.152344 142.03125 181.214844 145.59375 C 181.273438 149.414062 181.320312 153.230469 181.367188 157.050781 C 181.40625 160.675781 181.433594 164.300781 181.433594 167.925781 C 181.429688 170.847656 181.410156 173.78125 181.34375 176.703125 C 181.332031 176.996094 181.332031 177.289062 181.320312 177.582031 C 181.304688 178.054688 181.824219 178.496094 182.292969 178.449219 C 182.417969 178.445312 182.53125 178.414062 182.625 178.363281 C 182.636719 178.605469 182.636719 178.859375 182.648438 179.101562 C 182.65625 179.273438 182.710938 179.429688 182.804688 179.570312 C 182.867188 180.6875 182.929688 181.804688 183.007812 182.933594 C 183.03125 183.222656 183.046875 183.515625 183.070312 183.804688 C 183.105469 184.277344 183.535156 184.722656 184.042969 184.675781 C 184.527344 184.617188 184.96875 184.21875 184.921875 183.710938 Z M 189.457031 172.324219 C 189.371094 168.785156 189.261719 165.25 189.140625 161.714844 C 189.0625 159.453125 188.972656 157.183594 188.886719 154.921875 C 188.878906 154.777344 188.882812 154.621094 188.878906 154.472656 C 188.992188 155.941406 189.109375 157.394531 189.210938 158.863281 C 189.230469 159.289062 189.25 159.726562 189.269531 160.152344 C 189.417969 163.734375 189.53125 167.320312 189.589844 170.894531 C 189.632812 173.789062 189.664062 176.695312 189.582031 179.59375 C 189.585938 179.65625 189.578125 179.714844 189.578125 179.777344 C 189.554688 177.285156 189.503906 174.804688 189.457031 172.324219 Z M 189.457031 172.324219 " fill-opacity="1" fill-rule="nonzero"/></g></g></g></g><g clip-path="url(#73891d1ef4)"><path fill="#e6c7bd" d="M 129.414062 151.792969 C 128.105469 153.109375 128.238281 156.609375 129.039062 158.375 C 129.636719 159.691406 131.238281 160.058594 132.46875 160.308594 C 136.839844 161.199219 141.335938 161.125 145.765625 161.058594 C 152.507812 160.957031 159.25 160.726562 165.992188 160.636719 C 169.152344 160.597656 172.3125 160.640625 175.472656 160.664062 C 176.792969 160.675781 178.1875 160.882812 179.476562 160.429688 C 181.691406 159.652344 182.167969 156.878906 182.351562 154.820312 C 182.433594 153.882812 182.640625 152.589844 181.761719 151.910156 C 180.410156 150.859375 178.570312 150.863281 176.976562 150.707031 C 171.917969 150.222656 171.945312 150.191406 166.84375 150.039062 C 162.863281 149.921875 156.691406 149.800781 152.710938 149.894531 C 150.078125 149.957031 147.445312 150.117188 144.816406 150.242188 C 142.1875 150.371094 139.832031 150.058594 137.199219 150.148438 C 134.550781 150.238281 130.773438 150.421875 129.414062 151.792969 Z M 129.414062 151.792969 " fill-opacity="1" fill-rule="evenodd"/></g><g clip-path="url(#dc7a8d2894)"><g clip-path="url(#d6c6414ccd)"><g clip-path="url(#6d8ece7466)"><g clip-path="url(#aed93e524f)"><path fill="#d3a8cd" d="M 200.699219 199.484375 C 200.523438 196.984375 200.386719 194.496094 200.261719 191.996094 C 200.246094 189.734375 200.207031 187.472656 200.167969 185.199219 C 200.160156 184.46875 200.140625 183.75 200.132812 183.023438 C 200.171875 184.773438 200.226562 186.523438 200.28125 188.273438 C 200.371094 191.128906 200.488281 193.96875 200.640625 196.824219 C 200.652344 197.101562 200.675781 197.367188 200.691406 197.648438 C 200.722656 198.121094 201.15625 198.5625 201.664062 198.515625 C 202.171875 198.46875 202.566406 198.074219 202.554688 197.5625 C 202.507812 195.726562 202.453125 193.894531 202.382812 192.058594 C 202.40625 192.058594 202.445312 192.054688 202.46875 192.054688 C 202.742188 192.03125 202.960938 191.921875 203.113281 191.746094 C 203.179688 192.316406 203.242188 192.871094 203.304688 193.441406 C 203.324219 193.636719 203.34375 193.828125 203.367188 194.011719 C 203.390625 194.582031 203.40625 195.152344 203.429688 195.722656 C 203.445312 196.015625 203.457031 196.304688 203.46875 196.597656 C 203.492188 197.070312 203.949219 197.511719 204.445312 197.464844 C 204.964844 197.417969 205.332031 197.023438 205.335938 196.515625 C 205.332031 196.476562 205.332031 196.441406 205.332031 196.40625 C 205.433594 196.789062 205.871094 197.109375 206.28125 197.066406 C 206.828125 197.019531 207.148438 196.628906 207.171875 196.113281 C 207.183594 195.761719 207.203125 195.40625 207.210938 195.054688 C 207.3125 195.097656 207.425781 195.117188 207.550781 195.113281 C 207.550781 195.625 207.558594 196.132812 207.558594 196.644531 C 207.558594 196.949219 207.5625 197.253906 207.550781 197.558594 C 207.546875 198.007812 207.960938 198.378906 208.398438 198.421875 C 208.859375 198.460938 209.285156 198.160156 209.386719 197.71875 C 209.484375 197.335938 209.566406 196.96875 209.636719 196.589844 C 210.035156 196.582031 210.496094 196.304688 210.539062 195.890625 C 210.816406 193.226562 210.933594 190.53125 211 187.851562 C 211.085938 184.476562 211.082031 181.105469 211.042969 177.738281 C 210.992188 174.113281 210.890625 170.480469 210.753906 166.859375 C 210.609375 163.433594 210.433594 159.996094 210.191406 156.578125 C 209.992188 153.835938 209.769531 151.09375 209.421875 148.375 C 209.386719 148.105469 209.347656 147.839844 209.3125 147.574219 C 209.257812 147.164062 208.964844 146.761719 208.527344 146.710938 C 208.523438 146.6875 208.523438 146.648438 208.507812 146.625 C 208.449219 146.152344 208.070312 145.707031 207.535156 145.757812 C 207.300781 145.78125 207.09375 145.875 206.9375 146.015625 C 206.914062 145.75 206.875 145.46875 206.851562 145.203125 C 206.792969 144.730469 206.398438 144.285156 205.878906 144.335938 C 205.367188 144.382812 204.976562 144.777344 204.984375 145.289062 C 205.015625 146.453125 205.027344 147.621094 205.054688 148.789062 C 204.972656 148 204.875 147.214844 204.777344 146.429688 C 204.738281 146.136719 204.699219 145.859375 204.664062 145.570312 C 204.589844 145.097656 204.222656 144.652344 203.6875 144.699219 C 203.429688 144.726562 203.222656 144.832031 203.066406 144.984375 C 202.882812 144.808594 202.644531 144.710938 202.382812 144.734375 C 201.847656 144.785156 201.503906 145.175781 201.492188 145.6875 C 201.484375 146.066406 201.476562 146.441406 201.46875 146.832031 C 201.429688 146.835938 201.40625 146.835938 201.367188 146.835938 C 201.09375 146.863281 200.886719 146.96875 200.746094 147.121094 C 200.6875 146.613281 200.636719 146.089844 200.578125 145.582031 C 200.539062 145.304688 200.515625 145.039062 200.476562 144.761719 C 200.417969 144.300781 200.117188 143.949219 199.628906 143.898438 C 199.292969 143.863281 198.949219 144.027344 198.761719 144.300781 C 198.703125 144.351562 198.644531 144.417969 198.597656 144.492188 C 198.589844 144.019531 198.566406 143.554688 198.558594 143.082031 C 198.542969 142.777344 198.542969 142.472656 198.53125 142.160156 C 198.519531 141.683594 198.050781 141.242188 197.554688 141.289062 C 197.035156 141.335938 196.652344 141.730469 196.664062 142.242188 C 196.703125 145.0625 196.757812 147.882812 196.808594 150.707031 C 196.867188 154.257812 196.929688 157.804688 196.988281 161.367188 C 197.050781 165.1875 197.097656 169.007812 197.144531 172.824219 C 197.183594 176.449219 197.207031 180.074219 197.210938 183.699219 C 197.203125 186.621094 197.1875 189.554688 197.117188 192.476562 C 197.105469 192.769531 197.105469 193.0625 197.09375 193.355469 C 197.078125 193.832031 197.597656 194.269531 198.070312 194.222656 C 198.191406 194.21875 198.304688 194.191406 198.402344 194.136719 C 198.414062 194.378906 198.410156 194.636719 198.421875 194.878906 C 198.429688 195.046875 198.488281 195.203125 198.582031 195.34375 C 198.644531 196.460938 198.707031 197.578125 198.78125 198.707031 C 198.808594 198.996094 198.820312 199.289062 198.84375 199.582031 C 198.878906 200.054688 199.308594 200.496094 199.820312 200.449219 C 200.300781 200.390625 200.746094 199.992188 200.699219 199.484375 Z M 205.230469 188.097656 C 205.144531 184.5625 205.035156 181.023438 204.914062 177.488281 C 204.839844 175.230469 204.75 172.957031 204.660156 170.699219 C 204.652344 170.550781 204.660156 170.394531 204.652344 170.25 C 204.765625 171.714844 204.882812 173.171875 204.984375 174.636719 C 205.003906 175.0625 205.023438 175.5 205.042969 175.925781 C 205.191406 179.507812 205.304688 183.09375 205.367188 186.667969 C 205.410156 189.5625 205.441406 192.46875 205.359375 195.367188 C 205.359375 195.429688 205.351562 195.492188 205.355469 195.550781 C 205.328125 193.058594 205.28125 190.578125 205.230469 188.097656 Z M 205.230469 188.097656 " fill-opacity="1" fill-rule="nonzero"/></g></g></g></g><g clip-path="url(#dc0c9b1631)"><g clip-path="url(#8f6895a78d)"><g clip-path="url(#09adf5aefe)"><g clip-path="url(#59a841dbed)"><g clip-path="url(#a8c1fdc486)"><path fill="#e6c7bd" d="M 128.136719 189.144531 C 129.496094 190.394531 132.988281 190.160156 134.730469 189.316406 C 136.027344 188.6875 136.347656 187.097656 136.5625 185.875 C 137.320312 181.542969 137.113281 177.113281 136.914062 172.75 C 136.613281 166.105469 136.179688 159.46875 135.890625 152.824219 C 135.753906 149.710938 135.707031 146.59375 135.636719 143.480469 C 135.605469 142.175781 135.769531 140.796875 135.28125 139.539062 C 134.433594 137.378906 131.648438 136.992188 129.585938 136.875 C 128.648438 136.820312 127.347656 136.65625 126.691406 137.542969 C 125.683594 138.910156 125.742188 140.722656 125.632812 142.300781 C 125.300781 147.296875 125.265625 147.273438 125.269531 152.304688 C 125.269531 156.230469 125.332031 162.320312 125.546875 166.242188 C 125.6875 168.835938 125.921875 171.421875 126.128906 174.011719 C 126.335938 176.597656 126.09375 178.933594 126.261719 181.519531 C 126.429688 184.132812 126.726562 187.847656 128.136719 189.144531 Z M 128.136719 189.144531 " fill-opacity="1" fill-rule="evenodd"/></g></g></g></g></g><g clip-path="url(#0600772e19)"><path fill="#d3a8cd" d="M 207.894531 213.242188 C 204.3125 213.328125 200.746094 213.363281 197.164062 213.382812 C 193.929688 213.257812 190.695312 213.171875 187.445312 213.085938 C 186.402344 213.050781 185.375 213.03125 184.332031 213 C 186.835938 213.050781 189.339844 213.085938 191.84375 213.121094 C 195.929688 213.171875 200 213.191406 204.085938 213.15625 C 204.484375 213.15625 204.867188 213.136719 205.269531 213.136719 C 205.945312 213.121094 206.605469 212.546875 206.570312 211.832031 C 206.539062 211.117188 206 210.539062 205.269531 210.523438 C 202.640625 210.472656 200.015625 210.4375 197.390625 210.417969 C 197.390625 210.382812 197.390625 210.332031 197.390625 210.296875 C 197.375 209.914062 197.234375 209.601562 196.992188 209.375 C 197.808594 209.320312 198.609375 209.269531 199.425781 209.214844 C 199.703125 209.199219 199.980469 209.179688 200.242188 209.164062 C 201.058594 209.164062 201.878906 209.179688 202.695312 209.179688 C 203.113281 209.179688 203.527344 209.179688 203.945312 209.179688 C 204.625 209.179688 205.285156 208.570312 205.25 207.875 C 205.214844 207.140625 204.675781 206.601562 203.945312 206.566406 C 203.894531 206.566406 203.84375 206.566406 203.789062 206.566406 C 204.347656 206.445312 204.832031 205.851562 204.796875 205.277344 C 204.765625 204.511719 204.226562 204.039062 203.496094 203.96875 C 202.992188 203.933594 202.484375 203.882812 201.980469 203.847656 C 202.050781 203.707031 202.085938 203.550781 202.085938 203.378906 C 202.816406 203.414062 203.546875 203.429688 204.277344 203.464844 C 204.710938 203.480469 205.144531 203.5 205.582031 203.535156 C 206.222656 203.570312 206.78125 203.011719 206.867188 202.402344 C 206.953125 201.757812 206.554688 201.148438 205.929688 200.972656 C 205.390625 200.816406 204.867188 200.675781 204.328125 200.554688 C 204.347656 199.996094 203.980469 199.335938 203.390625 199.246094 C 199.597656 198.6875 195.757812 198.359375 191.929688 198.097656 C 187.113281 197.765625 182.296875 197.554688 177.480469 197.398438 C 172.300781 197.242188 167.101562 197.15625 161.917969 197.121094 C 157.015625 197.101562 152.09375 197.136719 147.191406 197.261719 C 143.261719 197.363281 139.332031 197.503906 135.417969 197.816406 C 135.039062 197.851562 134.65625 197.886719 134.273438 197.921875 C 133.679688 197.972656 133.089844 198.359375 132.984375 198.96875 C 132.949219 198.96875 132.898438 198.96875 132.863281 198.984375 C 132.1875 199.039062 131.523438 199.542969 131.558594 200.292969 C 131.578125 200.625 131.699219 200.921875 131.890625 201.148438 C 131.507812 201.164062 131.109375 201.199219 130.726562 201.214844 C 130.046875 201.269531 129.386719 201.792969 129.421875 202.523438 C 129.457031 203.238281 129.996094 203.8125 130.726562 203.832031 C 132.394531 203.867188 134.0625 203.917969 135.734375 203.953125 C 134.601562 204.023438 133.472656 204.109375 132.34375 204.195312 C 131.925781 204.230469 131.523438 204.265625 131.109375 204.300781 C 130.429688 204.371094 129.769531 204.859375 129.804688 205.609375 C 129.820312 205.972656 129.960938 206.269531 130.167969 206.496094 C 129.90625 206.742188 129.75 207.074219 129.769531 207.4375 C 129.804688 208.1875 130.34375 208.695312 131.074219 208.746094 C 131.613281 208.78125 132.152344 208.816406 132.707031 208.851562 C 132.707031 208.902344 132.707031 208.9375 132.707031 208.988281 C 132.726562 209.375 132.863281 209.667969 133.074219 209.878906 C 132.34375 209.929688 131.59375 209.964844 130.863281 210.019531 C 130.464844 210.054688 130.082031 210.070312 129.683594 210.105469 C 129.019531 210.15625 128.5 210.558594 128.394531 211.238281 C 128.324219 211.707031 128.535156 212.195312 128.917969 212.476562 C 128.984375 212.5625 129.074219 212.648438 129.175781 212.71875 C 128.5 212.703125 127.839844 212.703125 127.160156 212.683594 C 126.726562 212.683594 126.289062 212.667969 125.839844 212.667969 C 125.160156 212.648438 124.5 213.277344 124.535156 213.972656 C 124.570312 214.707031 125.109375 215.265625 125.839844 215.28125 C 129.871094 215.402344 133.90625 215.507812 137.941406 215.613281 C 143.019531 215.753906 148.097656 215.890625 153.191406 216.03125 C 158.648438 216.1875 164.109375 216.363281 169.570312 216.535156 C 174.75 216.710938 179.933594 216.902344 185.113281 217.128906 C 189.289062 217.320312 193.480469 217.53125 197.652344 217.808594 C 198.070312 217.84375 198.488281 217.859375 198.902344 217.894531 C 199.582031 217.949219 200.242188 217.25 200.207031 216.589844 C 200.207031 216.414062 200.171875 216.257812 200.105469 216.117188 C 200.453125 216.117188 200.816406 216.136719 201.164062 216.136719 C 201.40625 216.136719 201.632812 216.066406 201.84375 215.945312 C 203.441406 215.925781 205.042969 215.910156 206.660156 215.875 C 207.078125 215.855469 207.492188 215.855469 207.910156 215.839844 C 208.589844 215.820312 209.25 215.246094 209.214844 214.53125 C 209.164062 213.851562 208.625 213.207031 207.894531 213.242188 Z M 191.914062 206.183594 C 186.855469 206.078125 181.792969 206.007812 176.734375 205.957031 C 173.5 205.921875 170.25 205.90625 167.015625 205.886719 C 166.804688 205.886719 166.578125 205.871094 166.371094 205.871094 C 168.476562 205.800781 170.5625 205.730469 172.664062 205.679688 C 173.273438 205.679688 173.898438 205.679688 174.507812 205.679688 C 179.636719 205.695312 184.765625 205.765625 189.878906 205.90625 C 194.019531 206.027344 198.171875 206.167969 202.3125 206.460938 C 202.398438 206.460938 202.484375 206.480469 202.574219 206.480469 C 199.007812 206.359375 195.460938 206.269531 191.914062 206.183594 Z M 191.914062 206.183594 " fill-opacity="1" fill-rule="nonzero"/></g><g clip-path="url(#fd97b6108b)"><g clip-path="url(#f6fbcd8ee8)"><g clip-path="url(#1a210d658e)"><g clip-path="url(#b2c21bb07d)"><path fill="#d3a8cd" d="M 196.921875 195.710938 C 196.75 193.210938 196.609375 190.722656 196.484375 188.222656 C 196.472656 185.960938 196.433594 183.699219 196.390625 181.421875 C 196.382812 180.695312 196.363281 179.976562 196.355469 179.246094 C 196.398438 180.996094 196.453125 182.746094 196.503906 184.496094 C 196.597656 187.351562 196.710938 190.195312 196.867188 193.046875 C 196.878906 193.328125 196.902344 193.59375 196.914062 193.871094 C 196.949219 194.347656 197.378906 194.789062 197.886719 194.742188 C 198.398438 194.695312 198.789062 194.300781 198.78125 193.789062 C 198.734375 191.953125 198.675781 190.117188 198.605469 188.285156 C 198.632812 188.285156 198.667969 188.28125 198.695312 188.28125 C 198.96875 188.257812 199.1875 188.148438 199.339844 187.972656 C 199.402344 188.539062 199.464844 189.097656 199.527344 189.667969 C 199.550781 189.859375 199.570312 190.054688 199.589844 190.234375 C 199.617188 190.808594 199.628906 191.378906 199.65625 191.949219 C 199.667969 192.238281 199.683594 192.53125 199.695312 192.824219 C 199.71875 193.296875 200.171875 193.738281 200.667969 193.691406 C 201.191406 193.644531 201.558594 193.25 201.558594 192.738281 C 201.558594 192.703125 201.558594 192.667969 201.554688 192.628906 C 201.660156 193.015625 202.097656 193.335938 202.507812 193.292969 C 203.054688 193.242188 203.371094 192.851562 203.398438 192.339844 C 203.40625 191.988281 203.429688 191.632812 203.4375 191.28125 C 203.539062 191.324219 203.652344 191.34375 203.777344 191.335938 C 203.773438 191.847656 203.785156 192.359375 203.785156 192.871094 C 203.785156 193.175781 203.785156 193.480469 203.773438 193.785156 C 203.769531 194.234375 204.1875 194.605469 204.625 194.644531 C 205.085938 194.6875 205.507812 194.386719 205.613281 193.945312 C 205.707031 193.5625 205.792969 193.195312 205.863281 192.8125 C 206.261719 192.808594 206.722656 192.53125 206.765625 192.117188 C 207.042969 189.449219 207.160156 186.757812 207.226562 184.074219 C 207.308594 180.703125 207.308594 177.332031 207.269531 173.960938 C 207.21875 170.335938 207.117188 166.703125 206.976562 163.082031 C 206.835938 159.660156 206.65625 156.222656 206.417969 152.800781 C 206.21875 150.0625 205.996094 147.320312 205.648438 144.597656 C 205.613281 144.332031 205.574219 144.066406 205.539062 143.800781 C 205.480469 143.390625 205.191406 142.988281 204.75 142.933594 C 204.75 142.910156 204.75 142.875 204.734375 142.851562 C 204.675781 142.378906 204.296875 141.933594 203.761719 141.980469 C 203.527344 142.003906 203.320312 142.097656 203.164062 142.242188 C 203.136719 141.972656 203.101562 141.695312 203.078125 141.429688 C 203.019531 140.957031 202.625 140.511719 202.101562 140.558594 C 201.59375 140.605469 201.199219 141.003906 201.210938 141.511719 C 201.238281 142.679688 201.253906 143.847656 201.28125 145.015625 C 201.195312 144.226562 201.097656 143.441406 201 142.652344 C 200.964844 142.363281 200.925781 142.085938 200.886719 141.796875 C 200.816406 141.324219 200.449219 140.878906 199.914062 140.925781 C 199.652344 140.949219 199.445312 141.058594 199.292969 141.210938 C 199.109375 141.035156 198.867188 140.9375 198.609375 140.960938 C 198.074219 141.007812 197.730469 141.402344 197.714844 141.914062 C 197.707031 142.289062 197.699219 142.667969 197.691406 143.058594 C 197.65625 143.058594 197.632812 143.0625 197.59375 143.0625 C 197.320312 143.085938 197.113281 143.195312 196.972656 143.347656 C 196.910156 142.839844 196.863281 142.316406 196.800781 141.808594 C 196.765625 141.53125 196.742188 141.265625 196.703125 140.984375 C 196.644531 140.527344 196.34375 140.175781 195.855469 140.125 C 195.515625 140.089844 195.175781 140.25 194.988281 140.527344 C 194.929688 140.578125 194.867188 140.640625 194.824219 140.71875 C 194.8125 140.242188 194.792969 139.78125 194.785156 139.308594 C 194.769531 139.003906 194.769531 138.699219 194.753906 138.382812 C 194.746094 137.910156 194.277344 137.46875 193.78125 137.515625 C 193.261719 137.5625 192.878906 137.957031 192.890625 138.46875 C 192.929688 141.289062 192.980469 144.109375 193.035156 146.929688 C 193.09375 150.480469 193.152344 154.03125 193.214844 157.59375 C 193.273438 161.414062 193.320312 165.230469 193.367188 169.050781 C 193.40625 172.675781 193.433594 176.300781 193.433594 179.925781 C 193.429688 182.847656 193.410156 185.78125 193.34375 188.703125 C 193.332031 188.996094 193.332031 189.289062 193.320312 189.582031 C 193.304688 190.054688 193.824219 190.496094 194.292969 190.449219 C 194.417969 190.445312 194.53125 190.414062 194.625 190.363281 C 194.636719 190.605469 194.636719 190.859375 194.648438 191.101562 C 194.65625 191.273438 194.710938 191.429688 194.804688 191.570312 C 194.867188 192.6875 194.929688 193.804688 195.007812 194.933594 C 195.03125 195.222656 195.046875 195.515625 195.070312 195.804688 C 195.105469 196.277344 195.535156 196.722656 196.042969 196.675781 C 196.527344 196.617188 196.96875 196.21875 196.921875 195.710938 Z M 201.457031 184.324219 C 201.371094 180.785156 201.261719 177.25 201.140625 173.714844 C 201.0625 171.453125 200.972656 169.183594 200.886719 166.921875 C 200.878906 166.777344 200.882812 166.621094 200.878906 166.472656 C 200.992188 167.941406 201.109375 169.394531 201.210938 170.863281 C 201.230469 171.289062 201.25 171.726562 201.269531 172.152344 C 201.417969 175.734375 201.53125 179.320312 201.589844 182.894531 C 201.632812 185.789062 201.664062 188.695312 201.582031 191.59375 C 201.585938 191.65625 201.578125 191.714844 201.578125 191.777344 C 201.554688 189.285156 201.503906 186.804688 201.457031 184.324219 Z M 201.457031 184.324219 " fill-opacity="1" fill-rule="nonzero"/></g></g></g></g><g clip-path="url(#5b0863f6e4)"><path fill="#e6c7bd" d="M 141.414062 163.792969 C 140.105469 165.109375 140.238281 168.609375 141.039062 170.375 C 141.636719 171.691406 143.238281 172.058594 144.46875 172.308594 C 148.839844 173.199219 153.335938 173.125 157.765625 173.058594 C 164.507812 172.957031 171.25 172.726562 177.992188 172.636719 C 181.152344 172.597656 184.3125 172.640625 187.472656 172.664062 C 188.792969 172.675781 190.1875 172.882812 191.476562 172.429688 C 193.691406 171.652344 194.167969 168.878906 194.351562 166.820312 C 194.433594 165.882812 194.640625 164.589844 193.761719 163.910156 C 192.410156 162.859375 190.570312 162.863281 188.976562 162.707031 C 183.917969 162.222656 183.945312 162.191406 178.84375 162.039062 C 174.863281 161.921875 168.691406 161.800781 164.710938 161.894531 C 162.078125 161.957031 159.445312 162.117188 156.816406 162.242188 C 154.1875 162.371094 151.832031 162.058594 149.199219 162.148438 C 146.550781 162.238281 142.773438 162.421875 141.414062 163.792969 Z M 141.414062 163.792969 " fill-opacity="1" fill-rule="evenodd"/></g><g clip-path="url(#fc61a4ef15)"><g clip-path="url(#248569aace)"><g clip-path="url(#0dfce2ba37)"><g clip-path="url(#0d03728b03)"><path fill="#d3a8cd" d="M 212.699219 211.484375 C 212.523438 208.984375 212.386719 206.496094 212.261719 203.996094 C 212.246094 201.734375 212.207031 199.472656 212.167969 197.199219 C 212.160156 196.46875 212.140625 195.75 212.132812 195.023438 C 212.171875 196.773438 212.226562 198.523438 212.28125 200.273438 C 212.371094 203.128906 212.488281 205.96875 212.640625 208.824219 C 212.652344 209.101562 212.675781 209.367188 212.691406 209.648438 C 212.722656 210.121094 213.15625 210.5625 213.664062 210.515625 C 214.171875 210.46875 214.566406 210.074219 214.554688 209.5625 C 214.507812 207.726562 214.453125 205.894531 214.382812 204.058594 C 214.40625 204.058594 214.445312 204.054688 214.46875 204.054688 C 214.742188 204.03125 214.960938 203.921875 215.113281 203.746094 C 215.179688 204.316406 215.242188 204.871094 215.304688 205.441406 C 215.324219 205.636719 215.34375 205.828125 215.367188 206.011719 C 215.390625 206.582031 215.40625 207.152344 215.429688 207.722656 C 215.445312 208.015625 215.457031 208.304688 215.46875 208.597656 C 215.492188 209.070312 215.949219 209.511719 216.445312 209.464844 C 216.964844 209.417969 217.332031 209.023438 217.335938 208.515625 C 217.332031 208.476562 217.332031 208.441406 217.332031 208.40625 C 217.433594 208.789062 217.871094 209.109375 218.28125 209.066406 C 218.828125 209.019531 219.148438 208.628906 219.171875 208.113281 C 219.183594 207.761719 219.203125 207.40625 219.210938 207.054688 C 219.3125 207.097656 219.425781 207.117188 219.550781 207.113281 C 219.550781 207.625 219.558594 208.132812 219.558594 208.644531 C 219.558594 208.949219 219.5625 209.253906 219.550781 209.558594 C 219.546875 210.007812 219.960938 210.378906 220.398438 210.421875 C 220.859375 210.460938 221.285156 210.160156 221.386719 209.71875 C 221.484375 209.335938 221.566406 208.96875 221.636719 208.589844 C 222.035156 208.582031 222.496094 208.304688 222.539062 207.890625 C 222.816406 205.226562 222.933594 202.53125 223 199.851562 C 223.085938 196.476562 223.082031 193.105469 223.042969 189.738281 C 222.992188 186.113281 222.890625 182.480469 222.753906 178.859375 C 222.609375 175.433594 222.433594 171.996094 222.191406 168.578125 C 221.992188 165.835938 221.769531 163.09375 221.421875 160.375 C 221.386719 160.105469 221.347656 159.839844 221.3125 159.574219 C 221.257812 159.164062 220.964844 158.761719 220.527344 158.710938 C 220.523438 158.6875 220.523438 158.648438 220.507812 158.625 C 220.449219 158.152344 220.070312 157.707031 219.535156 157.757812 C 219.300781 157.78125 219.09375 157.875 218.9375 158.015625 C 218.914062 157.75 218.875 157.46875 218.851562 157.203125 C 218.792969 156.730469 218.398438 156.285156 217.878906 156.335938 C 217.367188 156.382812 216.976562 156.777344 216.984375 157.289062 C 217.015625 158.453125 217.027344 159.621094 217.054688 160.789062 C 216.972656 160 216.875 159.214844 216.777344 158.429688 C 216.738281 158.136719 216.699219 157.859375 216.664062 157.570312 C 216.589844 157.097656 216.222656 156.652344 215.6875 156.699219 C 215.429688 156.726562 215.222656 156.832031 215.066406 156.984375 C 214.882812 156.808594 214.644531 156.710938 214.382812 156.734375 C 213.847656 156.785156 213.503906 157.175781 213.492188 157.6875 C 213.484375 158.066406 213.476562 158.441406 213.46875 158.832031 C 213.429688 158.835938 213.40625 158.835938 213.367188 158.835938 C 213.09375 158.863281 212.886719 158.96875 212.746094 159.121094 C 212.6875 158.613281 212.636719 158.089844 212.578125 157.582031 C 212.539062 157.304688 212.515625 157.039062 212.476562 156.761719 C 212.417969 156.300781 212.117188 155.949219 211.628906 155.898438 C 211.292969 155.863281 210.949219 156.027344 210.761719 156.300781 C 210.703125 156.351562 210.644531 156.417969 210.597656 156.492188 C 210.589844 156.019531 210.566406 155.554688 210.558594 155.082031 C 210.542969 154.777344 210.542969 154.472656 210.53125 154.160156 C 210.519531 153.683594 210.050781 153.242188 209.554688 153.289062 C 209.035156 153.335938 208.652344 153.730469 208.664062 154.242188 C 208.703125 157.0625 208.757812 159.882812 208.808594 162.707031 C 208.867188 166.257812 208.929688 169.804688 208.988281 173.367188 C 209.050781 177.1875 209.097656 181.007812 209.144531 184.824219 C 209.183594 188.449219 209.207031 192.074219 209.210938 195.699219 C 209.203125 198.621094 209.1875 201.554688 209.117188 204.476562 C 209.105469 204.769531 209.105469 205.0625 209.09375 205.355469 C 209.078125 205.832031 209.597656 206.269531 210.070312 206.222656 C 210.191406 206.21875 210.304688 206.191406 210.402344 206.136719 C 210.414062 206.378906 210.410156 206.636719 210.421875 206.878906 C 210.429688 207.046875 210.488281 207.203125 210.582031 207.34375 C 210.644531 208.460938 210.707031 209.578125 210.78125 210.707031 C 210.808594 210.996094 210.820312 211.289062 210.84375 211.582031 C 210.878906 212.054688 211.308594 212.496094 211.820312 212.449219 C 212.300781 212.390625 212.746094 211.992188 212.699219 211.484375 Z M 217.230469 200.097656 C 217.144531 196.5625 217.035156 193.023438 216.914062 189.488281 C 216.839844 187.230469 216.75 184.957031 216.660156 182.699219 C 216.652344 182.550781 216.660156 182.394531 216.652344 182.25 C 216.765625 183.714844 216.882812 185.171875 216.984375 186.636719 C 217.003906 187.0625 217.023438 187.5 217.042969 187.925781 C 217.191406 191.507812 217.304688 195.09375 217.367188 198.667969 C 217.410156 201.5625 217.441406 204.46875 217.359375 207.367188 C 217.359375 207.429688 217.351562 207.492188 217.355469 207.550781 C 217.328125 205.058594 217.28125 202.578125 217.230469 200.097656 Z M 217.230469 200.097656 " fill-opacity="1" fill-rule="nonzero"/></g></g></g></g></svg>