<svg xmlns="http://www.w3.org/2000/svg" xmlns:xlink="http://www.w3.org/1999/xlink" width="500" zoomAndPan="magnify" viewBox="0 0 375 374.999991" height="500" preserveAspectRatio="xMidYMid meet" version="1.0"><defs><clipPath id="6af742b41e"><path d="M 112 68 L 137 68 L 137 178 L 112 178 Z M 112 68 " clip-rule="nonzero"/></clipPath><clipPath id="24844589c2"><path d="M 114.105469 178.339844 L 110.792969 68.886719 L 133.28125 68.207031 L 136.59375 177.65625 Z M 114.105469 178.339844 " clip-rule="nonzero"/></clipPath><clipPath id="61cb797bd1"><path d="M 114.105469 178.339844 L 110.792969 68.886719 L 133.28125 68.207031 L 136.59375 177.65625 Z M 114.105469 178.339844 " clip-rule="nonzero"/></clipPath><clipPath id="d5a88a86ec"><path d="M 114.105469 178.339844 L 110.792969 68.886719 L 133.28125 68.207031 L 136.59375 177.65625 Z M 114.105469 178.339844 " clip-rule="nonzero"/></clipPath><clipPath id="c8411c6ab5"><path d="M 113.992188 178.339844 L 110.679688 68.890625 L 133.128906 68.210938 L 136.441406 177.664062 Z M 113.992188 178.339844 " clip-rule="nonzero"/></clipPath><clipPath id="3672844036"><path d="M 112.5 185.027344 L 203.25 185.027344 L 203.25 207.527344 L 112.5 207.527344 Z M 112.5 185.027344 " clip-rule="nonzero"/></clipPath><clipPath id="a7ed0c811e"><path d="M 174 125 L 197 125 L 197 217 L 174 217 Z M 174 125 " clip-rule="nonzero"/></clipPath><clipPath id="5b070f9f8a"><path d="M 193.875 124.945312 L 197.953125 215.605469 L 175.476562 216.617188 L 171.398438 125.957031 Z M 193.875 124.945312 " clip-rule="nonzero"/></clipPath><clipPath id="d608541ed8"><path d="M 193.875 124.945312 L 197.953125 215.605469 L 175.476562 216.617188 L 171.398438 125.957031 Z M 193.875 124.945312 " clip-rule="nonzero"/></clipPath><clipPath id="ff3ed27eb7"><path d="M 193.875 124.945312 L 197.953125 215.605469 L 175.476562 216.617188 L 171.398438 125.957031 Z M 193.875 124.945312 " clip-rule="nonzero"/></clipPath><clipPath id="638b7a258b"><path d="M 128.273438 150 L 237.773438 150 L 237.773438 172.074219 L 128.273438 172.074219 Z M 128.273438 150 " clip-rule="nonzero"/></clipPath><clipPath id="8263ee7b43"><path d="M 190 141 L 212 141 L 212 233 L 190 233 Z M 190 141 " clip-rule="nonzero"/></clipPath><clipPath id="2f3c28cd7d"><path d="M 209.648438 140.722656 L 213.726562 231.378906 L 191.25 232.390625 L 187.171875 141.734375 Z M 209.648438 140.722656 " clip-rule="nonzero"/></clipPath><clipPath id="a60a2d2767"><path d="M 209.648438 140.722656 L 213.726562 231.378906 L 191.25 232.390625 L 187.171875 141.734375 Z M 209.648438 140.722656 " clip-rule="nonzero"/></clipPath><clipPath id="ddb47dd7d4"><path d="M 209.648438 140.722656 L 213.726562 231.378906 L 191.25 232.390625 L 187.171875 141.734375 Z M 209.648438 140.722656 " clip-rule="nonzero"/></clipPath><clipPath id="81c4b090ce"><path d="M 124 80 L 149 80 L 149 190 L 124 190 Z M 124 80 " clip-rule="nonzero"/></clipPath><clipPath id="5f184373c7"><path d="M 126.105469 190.339844 L 122.792969 80.886719 L 145.28125 80.207031 L 148.59375 189.65625 Z M 126.105469 190.339844 " clip-rule="nonzero"/></clipPath><clipPath id="125166ff26"><path d="M 126.105469 190.339844 L 122.792969 80.886719 L 145.28125 80.207031 L 148.59375 189.65625 Z M 126.105469 190.339844 " clip-rule="nonzero"/></clipPath><clipPath id="84f227e597"><path d="M 126.105469 190.339844 L 122.792969 80.886719 L 145.28125 80.207031 L 148.59375 189.65625 Z M 126.105469 190.339844 " clip-rule="nonzero"/></clipPath><clipPath id="18ace0a4a1"><path d="M 125.992188 190.339844 L 122.679688 80.890625 L 145.128906 80.210938 L 148.441406 189.664062 Z M 125.992188 190.339844 " clip-rule="nonzero"/></clipPath><clipPath id="e1081372f2"><path d="M 124.5 197.027344 L 215.25 197.027344 L 215.25 219.527344 L 124.5 219.527344 Z M 124.5 197.027344 " clip-rule="nonzero"/></clipPath><clipPath id="2b0e179d9c"><path d="M 186 137 L 209 137 L 209 229 L 186 229 Z M 186 137 " clip-rule="nonzero"/></clipPath><clipPath id="05a93b3896"><path d="M 205.875 136.945312 L 209.953125 227.605469 L 187.476562 228.617188 L 183.398438 137.957031 Z M 205.875 136.945312 " clip-rule="nonzero"/></clipPath><clipPath id="2f12a22beb"><path d="M 205.875 136.945312 L 209.953125 227.605469 L 187.476562 228.617188 L 183.398438 137.957031 Z M 205.875 136.945312 " clip-rule="nonzero"/></clipPath><clipPath id="e1b6318bff"><path d="M 205.875 136.945312 L 209.953125 227.605469 L 187.476562 228.617188 L 183.398438 137.957031 Z M 205.875 136.945312 " clip-rule="nonzero"/></clipPath><clipPath id="801dba67d5"><path d="M 140.273438 162 L 249.773438 162 L 249.773438 184.074219 L 140.273438 184.074219 Z M 140.273438 162 " clip-rule="nonzero"/></clipPath><clipPath id="2ab2754d32"><path d="M 202 153 L 224 153 L 224 245 L 202 245 Z M 202 153 " clip-rule="nonzero"/></clipPath><clipPath id="3df4911291"><path d="M 221.648438 152.722656 L 225.726562 243.378906 L 203.25 244.390625 L 199.171875 153.734375 Z M 221.648438 152.722656 " clip-rule="nonzero"/></clipPath><clipPath id="bc7929e70f"><path d="M 221.648438 152.722656 L 225.726562 243.378906 L 203.25 244.390625 L 199.171875 153.734375 Z M 221.648438 152.722656 " clip-rule="nonzero"/></clipPath><clipPath id="934adedef3"><path d="M 221.648438 152.722656 L 225.726562 243.378906 L 203.25 244.390625 L 199.171875 153.734375 Z M 221.648438 152.722656 " clip-rule="nonzero"/></clipPath></defs><g clip-path="url(#6af742b41e)"><g clip-path="url(#24844589c2)"><g clip-path="url(#61cb797bd1)"><g clip-path="url(#d5a88a86ec)"><g clip-path="url(#c8411c6ab5)"><path fill="#e6c7bd" d="M 118.164062 175.902344 C 120.882812 178.476562 127.867188 177.996094 131.347656 176.261719 C 133.933594 174.972656 134.570312 171.707031 134.996094 169.195312 C 136.507812 160.285156 136.085938 151.175781 135.683594 142.203125 C 135.066406 128.542969 134.191406 114.890625 133.597656 101.226562 C 133.320312 94.828125 133.21875 88.417969 133.070312 82.015625 C 133.007812 79.332031 133.335938 76.496094 132.355469 73.914062 C 130.664062 69.46875 125.09375 68.667969 120.96875 68.421875 C 119.09375 68.3125 116.5 67.972656 115.191406 69.792969 C 113.175781 72.597656 113.292969 76.328125 113.085938 79.570312 C 112.421875 89.847656 112.359375 89.792969 112.371094 100.144531 C 112.378906 108.214844 112.515625 120.738281 112.949219 128.800781 C 113.234375 134.136719 113.710938 139.457031 114.128906 144.78125 C 114.542969 150.101562 114.066406 154.894531 114.40625 160.21875 C 114.75 165.589844 115.34375 173.230469 118.164062 175.902344 Z M 118.164062 175.902344 " fill-opacity="1" fill-rule="evenodd"/></g></g></g></g></g><g clip-path="url(#3672844036)"><path fill="#d3a8cd" d="M 201.796875 202.398438 C 197.960938 202.492188 194.144531 202.527344 190.308594 202.546875 C 186.847656 202.417969 183.382812 202.324219 179.902344 202.230469 C 178.785156 202.191406 177.6875 202.175781 176.570312 202.136719 C 179.25 202.191406 181.929688 202.230469 184.613281 202.269531 C 188.988281 202.324219 193.34375 202.34375 197.71875 202.304688 C 198.148438 202.304688 198.558594 202.285156 198.984375 202.285156 C 199.710938 202.269531 200.417969 201.652344 200.382812 200.886719 C 200.34375 200.121094 199.769531 199.503906 198.984375 199.488281 C 196.175781 199.429688 193.363281 199.394531 190.550781 199.375 C 190.550781 199.335938 190.550781 199.28125 190.550781 199.242188 C 190.53125 198.832031 190.382812 198.496094 190.125 198.253906 C 191 198.199219 191.855469 198.140625 192.730469 198.085938 C 193.027344 198.066406 193.324219 198.050781 193.605469 198.03125 C 194.480469 198.03125 195.355469 198.050781 196.230469 198.050781 C 196.675781 198.050781 197.125 198.050781 197.570312 198.050781 C 198.296875 198.050781 199.003906 197.394531 198.96875 196.648438 C 198.929688 195.863281 198.351562 195.285156 197.570312 195.25 C 197.515625 195.25 197.460938 195.25 197.402344 195.25 C 198 195.117188 198.519531 194.484375 198.484375 193.867188 C 198.445312 193.046875 197.867188 192.542969 197.085938 192.46875 C 196.546875 192.429688 196.007812 192.375 195.46875 192.335938 C 195.542969 192.1875 195.578125 192.019531 195.578125 191.832031 C 196.359375 191.871094 197.144531 191.890625 197.925781 191.925781 C 198.390625 191.945312 198.855469 191.964844 199.320312 192 C 200.011719 192.039062 200.605469 191.441406 200.699219 190.789062 C 200.792969 190.097656 200.363281 189.445312 199.695312 189.257812 C 199.117188 189.089844 198.558594 188.9375 197.980469 188.808594 C 198 188.210938 197.609375 187.503906 196.976562 187.410156 C 192.917969 186.8125 188.800781 186.457031 184.707031 186.175781 C 179.546875 185.820312 174.390625 185.597656 169.234375 185.429688 C 163.683594 185.261719 158.117188 185.167969 152.570312 185.132812 C 147.316406 185.113281 142.046875 185.148438 136.796875 185.28125 C 132.589844 185.394531 128.382812 185.542969 124.191406 185.878906 C 123.785156 185.914062 123.375 185.953125 122.964844 185.988281 C 122.332031 186.046875 121.699219 186.457031 121.585938 187.109375 C 121.550781 187.109375 121.492188 187.109375 121.457031 187.128906 C 120.730469 187.183594 120.023438 187.726562 120.058594 188.527344 C 120.078125 188.882812 120.207031 189.199219 120.414062 189.445312 C 120.003906 189.460938 119.574219 189.5 119.164062 189.519531 C 118.441406 189.574219 117.730469 190.132812 117.769531 190.917969 C 117.804688 191.683594 118.382812 192.300781 119.164062 192.316406 C 120.953125 192.355469 122.742188 192.410156 124.527344 192.449219 C 123.316406 192.523438 122.109375 192.617188 120.898438 192.710938 C 120.449219 192.746094 120.023438 192.785156 119.574219 192.820312 C 118.847656 192.898438 118.140625 193.417969 118.179688 194.222656 C 118.199219 194.613281 118.347656 194.929688 118.570312 195.175781 C 118.289062 195.4375 118.121094 195.789062 118.140625 196.183594 C 118.179688 196.984375 118.757812 197.527344 119.539062 197.582031 C 120.117188 197.621094 120.691406 197.65625 121.289062 197.695312 C 121.289062 197.75 121.289062 197.789062 121.289062 197.84375 C 121.308594 198.253906 121.457031 198.570312 121.679688 198.796875 C 120.898438 198.851562 120.097656 198.890625 119.316406 198.945312 C 118.886719 198.980469 118.476562 199 118.046875 199.039062 C 117.339844 199.09375 116.78125 199.523438 116.671875 200.25 C 116.597656 200.753906 116.820312 201.277344 117.230469 201.578125 C 117.304688 201.671875 117.398438 201.765625 117.507812 201.839844 C 116.78125 201.820312 116.074219 201.820312 115.347656 201.800781 C 114.882812 201.800781 114.417969 201.78125 113.933594 201.78125 C 113.207031 201.765625 112.5 202.4375 112.539062 203.183594 C 112.574219 203.964844 113.152344 204.5625 113.933594 204.582031 C 118.253906 204.714844 122.574219 204.824219 126.894531 204.9375 C 132.328125 205.085938 137.765625 205.234375 143.222656 205.386719 C 149.066406 205.554688 154.914062 205.738281 160.761719 205.925781 C 166.308594 206.113281 171.859375 206.320312 177.40625 206.5625 C 181.875 206.765625 186.363281 206.992188 190.832031 207.289062 C 191.277344 207.328125 191.726562 207.34375 192.171875 207.382812 C 192.898438 207.4375 193.605469 206.691406 193.566406 205.984375 C 193.566406 205.796875 193.53125 205.628906 193.457031 205.480469 C 193.828125 205.480469 194.21875 205.496094 194.59375 205.496094 C 194.851562 205.496094 195.09375 205.421875 195.316406 205.292969 C 197.03125 205.273438 198.746094 205.253906 200.476562 205.21875 C 200.921875 205.199219 201.371094 205.199219 201.816406 205.179688 C 202.542969 205.160156 203.25 204.546875 203.210938 203.78125 C 203.15625 203.050781 202.578125 202.359375 201.796875 202.398438 Z M 184.6875 194.839844 C 179.269531 194.726562 173.851562 194.652344 168.433594 194.59375 C 164.96875 194.558594 161.488281 194.539062 158.023438 194.519531 C 157.800781 194.519531 157.558594 194.503906 157.335938 194.503906 C 159.589844 194.425781 161.824219 194.351562 164.074219 194.296875 C 164.726562 194.296875 165.398438 194.296875 166.050781 194.296875 C 171.542969 194.316406 177.035156 194.390625 182.507812 194.539062 C 186.941406 194.671875 191.390625 194.820312 195.820312 195.136719 C 195.914062 195.136719 196.007812 195.15625 196.101562 195.15625 C 192.285156 195.023438 188.484375 194.929688 184.6875 194.839844 Z M 184.6875 194.839844 " fill-opacity="1" fill-rule="nonzero"/></g><g clip-path="url(#a7ed0c811e)"><g clip-path="url(#5b070f9f8a)"><g clip-path="url(#d608541ed8)"><g clip-path="url(#ff3ed27eb7)"><path fill="#d3a8cd" d="M 180.53125 214.933594 C 180.265625 211.109375 180.058594 207.296875 179.867188 203.464844 C 179.839844 200 179.777344 196.535156 179.714844 193.054688 C 179.703125 191.9375 179.671875 190.835938 179.660156 189.71875 C 179.722656 192.402344 179.808594 195.082031 179.890625 197.761719 C 180.03125 202.132812 180.207031 206.488281 180.441406 210.855469 C 180.460938 211.285156 180.5 211.695312 180.519531 212.121094 C 180.570312 212.847656 181.214844 213.523438 181.980469 213.453125 C 182.742188 213.382812 183.332031 212.777344 183.316406 211.996094 C 183.246094 209.183594 183.15625 206.375 183.046875 203.566406 C 183.085938 203.5625 183.140625 203.558594 183.179688 203.558594 C 183.585938 203.523438 183.917969 203.359375 184.148438 203.085938 C 184.242188 203.957031 184.335938 204.8125 184.433594 205.683594 C 184.464844 205.980469 184.496094 206.277344 184.527344 206.554688 C 184.566406 207.429688 184.585938 208.304688 184.628906 209.179688 C 184.648438 209.625 184.667969 210.070312 184.6875 210.515625 C 184.71875 211.242188 185.40625 211.921875 186.148438 211.847656 C 186.929688 211.777344 187.480469 211.175781 187.484375 210.390625 C 187.480469 210.335938 187.480469 210.28125 187.476562 210.222656 C 187.632812 210.8125 188.292969 211.304688 188.90625 211.242188 C 189.722656 211.167969 190.203125 210.566406 190.242188 209.78125 C 190.253906 209.242188 190.285156 208.699219 190.300781 208.160156 C 190.453125 208.226562 190.621094 208.257812 190.808594 208.246094 C 190.804688 209.03125 190.820312 209.8125 190.820312 210.59375 C 190.820312 211.0625 190.824219 211.527344 190.808594 211.992188 C 190.800781 212.683594 191.425781 213.253906 192.082031 213.316406 C 192.777344 213.378906 193.410156 212.921875 193.566406 212.242188 C 193.707031 211.660156 193.832031 211.09375 193.9375 210.511719 C 194.535156 210.503906 195.226562 210.082031 195.289062 209.445312 C 195.703125 205.363281 195.875 201.234375 195.96875 197.128906 C 196.09375 191.960938 196.082031 186.800781 196.019531 181.640625 C 195.9375 176.089844 195.78125 170.523438 195.570312 164.980469 C 195.351562 159.734375 195.078125 154.472656 194.710938 149.230469 C 194.410156 145.03125 194.070312 140.835938 193.546875 136.667969 C 193.492188 136.257812 193.4375 135.851562 193.378906 135.445312 C 193.296875 134.8125 192.859375 134.199219 192.199219 134.117188 C 192.199219 134.082031 192.195312 134.023438 192.175781 133.988281 C 192.085938 133.265625 191.515625 132.582031 190.714844 132.65625 C 190.359375 132.691406 190.050781 132.835938 189.816406 133.050781 C 189.777344 132.640625 189.722656 132.214844 189.6875 131.808594 C 189.597656 131.085938 189.003906 130.402344 188.222656 130.476562 C 187.460938 130.546875 186.871094 131.152344 186.886719 131.933594 C 186.929688 133.722656 186.957031 135.507812 187 137.296875 C 186.871094 136.089844 186.722656 134.886719 186.574219 133.679688 C 186.515625 133.234375 186.460938 132.808594 186.402344 132.367188 C 186.296875 131.644531 185.742188 130.960938 184.941406 131.035156 C 184.550781 131.070312 184.242188 131.234375 184.007812 131.464844 C 183.734375 131.199219 183.371094 131.046875 182.980469 131.085938 C 182.183594 131.15625 181.667969 131.757812 181.644531 132.542969 C 181.636719 133.121094 181.625 133.699219 181.613281 134.296875 C 181.558594 134.296875 181.519531 134.300781 181.464844 134.300781 C 181.054688 134.339844 180.742188 134.503906 180.53125 134.734375 C 180.4375 133.957031 180.367188 133.160156 180.273438 132.378906 C 180.21875 131.953125 180.179688 131.546875 180.125 131.121094 C 180.035156 130.414062 179.582031 129.875 178.851562 129.796875 C 178.34375 129.746094 177.832031 129.992188 177.550781 130.414062 C 177.460938 130.492188 177.371094 130.589844 177.304688 130.707031 C 177.289062 129.980469 177.257812 129.273438 177.242188 128.546875 C 177.222656 128.082031 177.21875 127.617188 177.199219 127.132812 C 177.183594 126.40625 176.480469 125.730469 175.738281 125.800781 C 174.957031 125.871094 174.382812 126.476562 174.402344 127.257812 C 174.464844 131.578125 174.546875 135.898438 174.628906 140.21875 C 174.722656 145.65625 174.820312 151.097656 174.914062 156.550781 C 175.011719 162.402344 175.085938 168.25 175.164062 174.097656 C 175.226562 179.648438 175.269531 185.203125 175.277344 190.753906 C 175.273438 195.230469 175.25 199.722656 175.152344 204.199219 C 175.136719 204.648438 175.136719 205.09375 175.121094 205.542969 C 175.097656 206.269531 175.875 206.945312 176.582031 206.875 C 176.769531 206.867188 176.933594 206.820312 177.082031 206.742188 C 177.097656 207.113281 177.097656 207.503906 177.113281 207.875 C 177.125 208.136719 177.210938 208.375 177.351562 208.59375 C 177.445312 210.300781 177.542969 212.011719 177.65625 213.742188 C 177.695312 214.1875 177.714844 214.632812 177.753906 215.078125 C 177.804688 215.804688 178.453125 216.480469 179.214844 216.410156 C 179.941406 216.320312 180.605469 215.714844 180.53125 214.933594 Z M 187.316406 197.5 C 187.183594 192.082031 187.015625 186.667969 186.828125 181.253906 C 186.710938 177.792969 186.570312 174.3125 186.433594 170.851562 C 186.425781 170.628906 186.433594 170.386719 186.421875 170.164062 C 186.597656 172.410156 186.773438 174.636719 186.929688 176.886719 C 186.960938 177.539062 186.988281 178.207031 187.019531 178.859375 C 187.246094 184.347656 187.417969 189.835938 187.515625 195.3125 C 187.585938 199.746094 187.636719 204.195312 187.519531 208.636719 C 187.523438 208.730469 187.507812 208.824219 187.511719 208.917969 C 187.46875 205.097656 187.394531 201.300781 187.316406 197.5 Z M 187.316406 197.5 " fill-opacity="1" fill-rule="nonzero"/></g></g></g></g><g clip-path="url(#638b7a258b)"><path fill="#e6c7bd" d="M 130.585938 153.859375 C 127.929688 156.496094 128.203125 163.492188 129.828125 167.023438 C 131.039062 169.648438 134.285156 170.382812 136.78125 170.886719 C 145.640625 172.664062 154.757812 172.519531 163.738281 172.386719 C 177.414062 172.183594 191.085938 171.722656 204.761719 171.542969 C 211.167969 171.460938 217.574219 171.554688 223.980469 171.597656 C 226.664062 171.617188 229.488281 172.03125 232.097656 171.125 C 236.59375 169.570312 237.5625 164.027344 237.933594 159.914062 C 238.101562 158.042969 238.519531 155.457031 236.738281 154.09375 C 233.992188 151.996094 230.261719 152 227.027344 151.695312 C 216.777344 150.722656 216.832031 150.660156 206.484375 150.359375 C 198.417969 150.121094 185.898438 149.878906 177.824219 150.066406 C 172.484375 150.191406 167.148438 150.507812 161.816406 150.765625 C 156.484375 151.019531 151.707031 150.398438 146.375 150.574219 C 140.996094 150.757812 133.34375 151.117188 130.585938 153.859375 Z M 130.585938 153.859375 " fill-opacity="1" fill-rule="evenodd"/></g><g clip-path="url(#8263ee7b43)"><g clip-path="url(#2f3c28cd7d)"><g clip-path="url(#a60a2d2767)"><g clip-path="url(#ddb47dd7d4)"><path fill="#d3a8cd" d="M 196.308594 230.710938 C 196.042969 226.882812 195.832031 223.070312 195.640625 219.238281 C 195.617188 215.773438 195.554688 212.308594 195.492188 208.828125 C 195.476562 207.710938 195.445312 206.613281 195.433594 205.496094 C 195.5 208.175781 195.582031 210.855469 195.664062 213.535156 C 195.804688 217.910156 195.984375 222.261719 196.214844 226.632812 C 196.234375 227.058594 196.273438 227.46875 196.292969 227.894531 C 196.34375 228.621094 196.992188 229.300781 197.753906 229.226562 C 198.515625 229.15625 199.105469 228.550781 199.089844 227.769531 C 199.019531 224.957031 198.929688 222.148438 198.824219 219.339844 C 198.859375 219.335938 198.914062 219.335938 198.953125 219.332031 C 199.363281 219.296875 199.691406 219.132812 199.921875 218.859375 C 200.015625 219.734375 200.113281 220.585938 200.207031 221.457031 C 200.238281 221.753906 200.269531 222.050781 200.300781 222.328125 C 200.339844 223.203125 200.363281 224.078125 200.402344 224.953125 C 200.421875 225.398438 200.441406 225.84375 200.460938 226.292969 C 200.496094 227.015625 201.179688 227.695312 201.921875 227.625 C 202.703125 227.550781 203.257812 226.949219 203.257812 226.164062 C 203.257812 226.109375 203.253906 226.054688 203.25 226 C 203.410156 226.589844 204.066406 227.082031 204.679688 227.015625 C 205.5 226.941406 205.976562 226.34375 206.015625 225.558594 C 206.027344 225.015625 206.0625 224.472656 206.074219 223.933594 C 206.226562 224 206.394531 224.03125 206.582031 224.023438 C 206.582031 224.804688 206.597656 225.585938 206.59375 226.371094 C 206.597656 226.835938 206.597656 227.300781 206.582031 227.769531 C 206.578125 228.457031 207.199219 229.027344 207.855469 229.089844 C 208.550781 229.152344 209.183594 228.695312 209.339844 228.015625 C 209.484375 227.433594 209.605469 226.867188 209.710938 226.285156 C 210.308594 226.277344 211 225.855469 211.066406 225.21875 C 211.480469 221.136719 211.648438 217.011719 211.742188 212.90625 C 211.867188 207.738281 211.859375 202.574219 211.792969 197.414062 C 211.714844 191.863281 211.554688 186.296875 211.34375 180.753906 C 211.125 175.507812 210.851562 170.246094 210.484375 165.007812 C 210.183594 160.808594 209.847656 156.609375 209.324219 152.441406 C 209.265625 152.03125 209.210938 151.625 209.15625 151.21875 C 209.070312 150.589844 208.632812 149.972656 207.976562 149.890625 C 207.972656 149.855469 207.96875 149.800781 207.949219 149.761719 C 207.863281 149.039062 207.289062 148.355469 206.488281 148.429688 C 206.136719 148.464844 205.824219 148.609375 205.589844 148.824219 C 205.554688 148.417969 205.496094 147.992188 205.460938 147.582031 C 205.371094 146.859375 204.78125 146.175781 204 146.25 C 203.234375 146.320312 202.644531 146.925781 202.664062 147.707031 C 202.707031 149.496094 202.730469 151.285156 202.773438 153.070312 C 202.644531 151.863281 202.496094 150.660156 202.347656 149.457031 C 202.292969 149.011719 202.234375 148.585938 202.179688 148.140625 C 202.070312 147.417969 201.515625 146.734375 200.714844 146.808594 C 200.324219 146.84375 200.015625 147.007812 199.78125 147.242188 C 199.507812 146.972656 199.148438 146.824219 198.757812 146.859375 C 197.957031 146.933594 197.441406 147.53125 197.421875 148.316406 C 197.410156 148.894531 197.398438 149.472656 197.386719 150.070312 C 197.332031 150.074219 197.292969 150.074219 197.238281 150.078125 C 196.828125 150.113281 196.519531 150.277344 196.304688 150.511719 C 196.214844 149.730469 196.140625 148.933594 196.050781 148.15625 C 195.992188 147.730469 195.957031 147.320312 195.898438 146.894531 C 195.8125 146.191406 195.359375 145.652344 194.625 145.570312 C 194.117188 145.519531 193.605469 145.765625 193.328125 146.191406 C 193.238281 146.269531 193.148438 146.367188 193.078125 146.480469 C 193.0625 145.753906 193.03125 145.046875 193.019531 144.320312 C 192.996094 143.855469 192.996094 143.390625 192.972656 142.90625 C 192.960938 142.179688 192.257812 141.503906 191.511719 141.574219 C 190.730469 141.648438 190.160156 142.25 190.175781 143.03125 C 190.238281 147.355469 190.320312 151.675781 190.402344 155.996094 C 190.5 161.433594 190.59375 166.871094 190.691406 172.328125 C 190.785156 178.175781 190.863281 184.023438 190.9375 189.871094 C 191 195.425781 191.046875 200.976562 191.050781 206.53125 C 191.046875 211.003906 191.027344 215.496094 190.929688 219.972656 C 190.910156 220.421875 190.914062 220.871094 190.894531 221.316406 C 190.871094 222.046875 191.648438 222.71875 192.355469 222.648438 C 192.542969 222.640625 192.710938 222.597656 192.855469 222.515625 C 192.871094 222.886719 192.871094 223.277344 192.886719 223.652344 C 192.898438 223.910156 192.984375 224.148438 193.125 224.367188 C 193.21875 226.078125 193.316406 227.789062 193.429688 229.515625 C 193.46875 229.960938 193.492188 230.40625 193.527344 230.851562 C 193.582031 231.578125 194.226562 232.257812 194.992188 232.183594 C 195.714844 232.097656 196.378906 231.488281 196.308594 230.710938 Z M 203.089844 213.277344 C 202.957031 207.859375 202.789062 202.441406 202.601562 197.027344 C 202.484375 193.566406 202.347656 190.085938 202.207031 186.625 C 202.199219 186.402344 202.207031 186.160156 202.195312 185.9375 C 202.371094 188.183594 202.546875 190.414062 202.703125 192.660156 C 202.734375 193.3125 202.765625 193.980469 202.792969 194.632812 C 203.023438 200.121094 203.195312 205.609375 203.289062 211.085938 C 203.359375 215.519531 203.410156 219.972656 203.292969 224.414062 C 203.296875 224.503906 203.28125 224.597656 203.285156 224.691406 C 203.246094 220.875 203.167969 217.074219 203.089844 213.277344 Z M 203.089844 213.277344 " fill-opacity="1" fill-rule="nonzero"/></g></g></g></g><g clip-path="url(#81c4b090ce)"><g clip-path="url(#5f184373c7)"><g clip-path="url(#125166ff26)"><g clip-path="url(#84f227e597)"><g clip-path="url(#18ace0a4a1)"><path fill="#e6c7bd" d="M 130.164062 187.902344 C 132.882812 190.476562 139.867188 189.996094 143.347656 188.261719 C 145.933594 186.972656 146.570312 183.707031 146.996094 181.195312 C 148.507812 172.285156 148.085938 163.175781 147.683594 154.203125 C 147.066406 140.542969 146.191406 126.890625 145.597656 113.226562 C 145.320312 106.828125 145.21875 100.417969 145.070312 94.015625 C 145.007812 91.332031 145.335938 88.496094 144.355469 85.914062 C 142.664062 81.46875 137.09375 80.667969 132.96875 80.421875 C 131.09375 80.3125 128.5 79.972656 127.191406 81.792969 C 125.175781 84.597656 125.292969 88.328125 125.085938 91.570312 C 124.421875 101.847656 124.359375 101.792969 124.371094 112.144531 C 124.378906 120.214844 124.515625 132.738281 124.949219 140.800781 C 125.234375 146.136719 125.710938 151.457031 126.128906 156.78125 C 126.542969 162.101562 126.066406 166.894531 126.40625 172.21875 C 126.75 177.589844 127.34375 185.230469 130.164062 187.902344 Z M 130.164062 187.902344 " fill-opacity="1" fill-rule="evenodd"/></g></g></g></g></g><g clip-path="url(#e1081372f2)"><path fill="#d3a8cd" d="M 213.796875 214.398438 C 209.960938 214.492188 206.144531 214.527344 202.308594 214.546875 C 198.847656 214.417969 195.382812 214.324219 191.902344 214.230469 C 190.785156 214.191406 189.6875 214.175781 188.570312 214.136719 C 191.25 214.191406 193.929688 214.230469 196.613281 214.269531 C 200.988281 214.324219 205.34375 214.34375 209.71875 214.304688 C 210.148438 214.304688 210.558594 214.285156 210.984375 214.285156 C 211.710938 214.269531 212.417969 213.652344 212.382812 212.886719 C 212.34375 212.121094 211.769531 211.503906 210.984375 211.488281 C 208.175781 211.429688 205.363281 211.394531 202.550781 211.375 C 202.550781 211.335938 202.550781 211.28125 202.550781 211.242188 C 202.53125 210.832031 202.382812 210.496094 202.125 210.253906 C 203 210.199219 203.855469 210.140625 204.730469 210.085938 C 205.027344 210.066406 205.324219 210.050781 205.605469 210.03125 C 206.480469 210.03125 207.355469 210.050781 208.230469 210.050781 C 208.675781 210.050781 209.125 210.050781 209.570312 210.050781 C 210.296875 210.050781 211.003906 209.394531 210.96875 208.648438 C 210.929688 207.863281 210.351562 207.285156 209.570312 207.25 C 209.515625 207.25 209.460938 207.25 209.402344 207.25 C 210 207.117188 210.519531 206.484375 210.484375 205.867188 C 210.445312 205.046875 209.867188 204.542969 209.085938 204.46875 C 208.546875 204.429688 208.007812 204.375 207.46875 204.335938 C 207.542969 204.1875 207.578125 204.019531 207.578125 203.832031 C 208.359375 203.871094 209.144531 203.890625 209.925781 203.925781 C 210.390625 203.945312 210.855469 203.964844 211.320312 204 C 212.011719 204.039062 212.605469 203.441406 212.699219 202.789062 C 212.792969 202.097656 212.363281 201.445312 211.695312 201.257812 C 211.117188 201.089844 210.558594 200.9375 209.980469 200.808594 C 210 200.210938 209.609375 199.503906 208.976562 199.410156 C 204.917969 198.8125 200.800781 198.457031 196.707031 198.175781 C 191.546875 197.820312 186.390625 197.597656 181.234375 197.429688 C 175.683594 197.261719 170.117188 197.167969 164.570312 197.132812 C 159.316406 197.113281 154.046875 197.148438 148.796875 197.28125 C 144.589844 197.394531 140.382812 197.542969 136.191406 197.878906 C 135.785156 197.914062 135.375 197.953125 134.964844 197.988281 C 134.332031 198.046875 133.699219 198.457031 133.585938 199.109375 C 133.550781 199.109375 133.492188 199.109375 133.457031 199.128906 C 132.730469 199.183594 132.023438 199.726562 132.058594 200.527344 C 132.078125 200.882812 132.207031 201.199219 132.414062 201.445312 C 132.003906 201.460938 131.574219 201.5 131.164062 201.519531 C 130.441406 201.574219 129.730469 202.132812 129.769531 202.917969 C 129.804688 203.683594 130.382812 204.300781 131.164062 204.316406 C 132.953125 204.355469 134.742188 204.410156 136.527344 204.449219 C 135.316406 204.523438 134.109375 204.617188 132.898438 204.710938 C 132.449219 204.746094 132.023438 204.785156 131.574219 204.820312 C 130.847656 204.898438 130.140625 205.417969 130.179688 206.222656 C 130.199219 206.613281 130.347656 206.929688 130.570312 207.175781 C 130.289062 207.4375 130.121094 207.789062 130.140625 208.183594 C 130.179688 208.984375 130.757812 209.527344 131.539062 209.582031 C 132.117188 209.621094 132.691406 209.65625 133.289062 209.695312 C 133.289062 209.75 133.289062 209.789062 133.289062 209.84375 C 133.308594 210.253906 133.457031 210.570312 133.679688 210.796875 C 132.898438 210.851562 132.097656 210.890625 131.316406 210.945312 C 130.886719 210.980469 130.476562 211 130.046875 211.039062 C 129.339844 211.09375 128.78125 211.523438 128.671875 212.25 C 128.597656 212.753906 128.820312 213.277344 129.230469 213.578125 C 129.304688 213.671875 129.398438 213.765625 129.507812 213.839844 C 128.78125 213.820312 128.074219 213.820312 127.347656 213.800781 C 126.882812 213.800781 126.417969 213.78125 125.933594 213.78125 C 125.207031 213.765625 124.5 214.4375 124.539062 215.183594 C 124.574219 215.964844 125.152344 216.5625 125.933594 216.582031 C 130.253906 216.714844 134.574219 216.824219 138.894531 216.9375 C 144.328125 217.085938 149.765625 217.234375 155.222656 217.386719 C 161.066406 217.554688 166.914062 217.738281 172.761719 217.925781 C 178.308594 218.113281 183.859375 218.320312 189.40625 218.5625 C 193.875 218.765625 198.363281 218.992188 202.832031 219.289062 C 203.277344 219.328125 203.726562 219.34375 204.171875 219.382812 C 204.898438 219.4375 205.605469 218.691406 205.566406 217.984375 C 205.566406 217.796875 205.53125 217.628906 205.457031 217.480469 C 205.828125 217.480469 206.21875 217.496094 206.59375 217.496094 C 206.851562 217.496094 207.09375 217.421875 207.316406 217.292969 C 209.03125 217.273438 210.746094 217.253906 212.476562 217.21875 C 212.921875 217.199219 213.371094 217.199219 213.816406 217.179688 C 214.542969 217.160156 215.25 216.546875 215.210938 215.78125 C 215.15625 215.050781 214.578125 214.359375 213.796875 214.398438 Z M 196.6875 206.839844 C 191.269531 206.726562 185.851562 206.652344 180.433594 206.59375 C 176.96875 206.558594 173.488281 206.539062 170.023438 206.519531 C 169.800781 206.519531 169.558594 206.503906 169.335938 206.503906 C 171.589844 206.425781 173.824219 206.351562 176.074219 206.296875 C 176.726562 206.296875 177.398438 206.296875 178.050781 206.296875 C 183.542969 206.316406 189.035156 206.390625 194.507812 206.539062 C 198.941406 206.671875 203.390625 206.820312 207.820312 207.136719 C 207.914062 207.136719 208.007812 207.15625 208.101562 207.15625 C 204.285156 207.023438 200.484375 206.929688 196.6875 206.839844 Z M 196.6875 206.839844 " fill-opacity="1" fill-rule="nonzero"/></g><g clip-path="url(#2b0e179d9c)"><g clip-path="url(#05a93b3896)"><g clip-path="url(#2f12a22beb)"><g clip-path="url(#e1b6318bff)"><path fill="#d3a8cd" d="M 192.53125 226.933594 C 192.265625 223.109375 192.058594 219.296875 191.867188 215.464844 C 191.839844 212 191.777344 208.535156 191.714844 205.054688 C 191.703125 203.9375 191.671875 202.835938 191.660156 201.71875 C 191.722656 204.402344 191.808594 207.082031 191.890625 209.761719 C 192.03125 214.132812 192.207031 218.488281 192.441406 222.855469 C 192.460938 223.285156 192.5 223.695312 192.519531 224.121094 C 192.570312 224.847656 193.214844 225.523438 193.980469 225.453125 C 194.742188 225.382812 195.332031 224.777344 195.316406 223.996094 C 195.246094 221.183594 195.15625 218.375 195.046875 215.566406 C 195.085938 215.5625 195.140625 215.558594 195.179688 215.558594 C 195.585938 215.523438 195.917969 215.359375 196.148438 215.085938 C 196.242188 215.957031 196.335938 216.8125 196.433594 217.683594 C 196.464844 217.980469 196.496094 218.277344 196.527344 218.554688 C 196.566406 219.429688 196.585938 220.304688 196.628906 221.179688 C 196.648438 221.625 196.667969 222.070312 196.6875 222.515625 C 196.71875 223.242188 197.40625 223.921875 198.148438 223.847656 C 198.929688 223.777344 199.480469 223.175781 199.484375 222.390625 C 199.480469 222.335938 199.480469 222.28125 199.476562 222.222656 C 199.632812 222.8125 200.292969 223.304688 200.90625 223.242188 C 201.722656 223.167969 202.203125 222.566406 202.242188 221.78125 C 202.253906 221.242188 202.285156 220.699219 202.300781 220.160156 C 202.453125 220.226562 202.621094 220.257812 202.808594 220.246094 C 202.804688 221.03125 202.820312 221.8125 202.820312 222.59375 C 202.820312 223.0625 202.824219 223.527344 202.808594 223.992188 C 202.800781 224.683594 203.425781 225.253906 204.082031 225.316406 C 204.777344 225.378906 205.410156 224.921875 205.566406 224.242188 C 205.707031 223.660156 205.832031 223.09375 205.9375 222.511719 C 206.535156 222.503906 207.226562 222.082031 207.289062 221.445312 C 207.703125 217.363281 207.875 213.234375 207.96875 209.128906 C 208.09375 203.960938 208.082031 198.800781 208.019531 193.640625 C 207.9375 188.089844 207.78125 182.523438 207.570312 176.980469 C 207.351562 171.734375 207.078125 166.472656 206.710938 161.230469 C 206.410156 157.03125 206.070312 152.835938 205.546875 148.667969 C 205.492188 148.257812 205.4375 147.851562 205.378906 147.445312 C 205.296875 146.8125 204.859375 146.199219 204.199219 146.117188 C 204.199219 146.082031 204.195312 146.023438 204.175781 145.988281 C 204.085938 145.265625 203.515625 144.582031 202.714844 144.65625 C 202.359375 144.691406 202.050781 144.835938 201.816406 145.050781 C 201.777344 144.640625 201.722656 144.214844 201.6875 143.808594 C 201.597656 143.085938 201.003906 142.402344 200.222656 142.476562 C 199.460938 142.546875 198.871094 143.152344 198.886719 143.933594 C 198.929688 145.722656 198.957031 147.507812 199 149.296875 C 198.871094 148.089844 198.722656 146.886719 198.574219 145.679688 C 198.515625 145.234375 198.460938 144.808594 198.402344 144.367188 C 198.296875 143.644531 197.742188 142.960938 196.941406 143.035156 C 196.550781 143.070312 196.242188 143.234375 196.007812 143.464844 C 195.734375 143.199219 195.371094 143.046875 194.980469 143.085938 C 194.183594 143.15625 193.667969 143.757812 193.644531 144.542969 C 193.636719 145.121094 193.625 145.699219 193.613281 146.296875 C 193.558594 146.296875 193.519531 146.300781 193.464844 146.300781 C 193.054688 146.339844 192.742188 146.503906 192.53125 146.734375 C 192.4375 145.957031 192.367188 145.160156 192.273438 144.378906 C 192.21875 143.953125 192.179688 143.546875 192.125 143.121094 C 192.035156 142.414062 191.582031 141.875 190.851562 141.796875 C 190.34375 141.746094 189.832031 141.992188 189.550781 142.414062 C 189.460938 142.492188 189.371094 142.589844 189.304688 142.707031 C 189.289062 141.980469 189.257812 141.273438 189.242188 140.546875 C 189.222656 140.082031 189.21875 139.617188 189.199219 139.132812 C 189.183594 138.40625 188.480469 137.730469 187.738281 137.800781 C 186.957031 137.871094 186.382812 138.476562 186.402344 139.257812 C 186.464844 143.578125 186.546875 147.898438 186.628906 152.21875 C 186.722656 157.65625 186.820312 163.097656 186.914062 168.550781 C 187.011719 174.402344 187.085938 180.25 187.164062 186.097656 C 187.226562 191.648438 187.269531 197.203125 187.277344 202.753906 C 187.273438 207.230469 187.25 211.722656 187.152344 216.199219 C 187.136719 216.648438 187.136719 217.09375 187.121094 217.542969 C 187.097656 218.269531 187.875 218.945312 188.582031 218.875 C 188.769531 218.867188 188.933594 218.820312 189.082031 218.742188 C 189.097656 219.113281 189.097656 219.503906 189.113281 219.875 C 189.125 220.136719 189.210938 220.375 189.351562 220.59375 C 189.445312 222.300781 189.542969 224.011719 189.65625 225.742188 C 189.695312 226.1875 189.714844 226.632812 189.753906 227.078125 C 189.804688 227.804688 190.453125 228.480469 191.214844 228.410156 C 191.941406 228.320312 192.605469 227.714844 192.53125 226.933594 Z M 199.316406 209.5 C 199.183594 204.082031 199.015625 198.667969 198.828125 193.253906 C 198.710938 189.792969 198.570312 186.3125 198.433594 182.851562 C 198.425781 182.628906 198.433594 182.386719 198.421875 182.164062 C 198.597656 184.410156 198.773438 186.636719 198.929688 188.886719 C 198.960938 189.539062 198.988281 190.207031 199.019531 190.859375 C 199.246094 196.347656 199.417969 201.835938 199.515625 207.3125 C 199.585938 211.746094 199.636719 216.195312 199.519531 220.636719 C 199.523438 220.730469 199.507812 220.824219 199.511719 220.917969 C 199.46875 217.097656 199.394531 213.300781 199.316406 209.5 Z M 199.316406 209.5 " fill-opacity="1" fill-rule="nonzero"/></g></g></g></g><g clip-path="url(#801dba67d5)"><path fill="#e6c7bd" d="M 142.585938 165.859375 C 139.929688 168.496094 140.203125 175.492188 141.828125 179.023438 C 143.039062 181.648438 146.285156 182.382812 148.78125 182.886719 C 157.640625 184.664062 166.757812 184.519531 175.738281 184.386719 C 189.414062 184.183594 203.085938 183.722656 216.761719 183.542969 C 223.167969 183.460938 229.574219 183.554688 235.980469 183.597656 C 238.664062 183.617188 241.488281 184.03125 244.097656 183.125 C 248.59375 181.570312 249.5625 176.027344 249.933594 171.914062 C 250.101562 170.042969 250.519531 167.457031 248.738281 166.09375 C 245.992188 163.996094 242.261719 164 239.027344 163.695312 C 228.777344 162.722656 228.832031 162.660156 218.484375 162.359375 C 210.417969 162.121094 197.898438 161.878906 189.824219 162.066406 C 184.484375 162.191406 179.148438 162.507812 173.816406 162.765625 C 168.484375 163.019531 163.707031 162.398438 158.375 162.574219 C 152.996094 162.757812 145.34375 163.117188 142.585938 165.859375 Z M 142.585938 165.859375 " fill-opacity="1" fill-rule="evenodd"/></g><g clip-path="url(#2ab2754d32)"><g clip-path="url(#3df4911291)"><g clip-path="url(#bc7929e70f)"><g clip-path="url(#934adedef3)"><path fill="#d3a8cd" d="M 208.308594 242.710938 C 208.042969 238.882812 207.832031 235.070312 207.640625 231.238281 C 207.617188 227.773438 207.554688 224.308594 207.492188 220.828125 C 207.476562 219.710938 207.445312 218.613281 207.433594 217.496094 C 207.5 220.175781 207.582031 222.855469 207.664062 225.535156 C 207.804688 229.910156 207.984375 234.261719 208.214844 238.632812 C 208.234375 239.058594 208.273438 239.46875 208.292969 239.894531 C 208.34375 240.621094 208.992188 241.300781 209.753906 241.226562 C 210.515625 241.15625 211.105469 240.550781 211.089844 239.769531 C 211.019531 236.957031 210.929688 234.148438 210.824219 231.339844 C 210.859375 231.335938 210.914062 231.335938 210.953125 231.332031 C 211.363281 231.296875 211.691406 231.132812 211.921875 230.859375 C 212.015625 231.734375 212.113281 232.585938 212.207031 233.457031 C 212.238281 233.753906 212.269531 234.050781 212.300781 234.328125 C 212.339844 235.203125 212.363281 236.078125 212.402344 236.953125 C 212.421875 237.398438 212.441406 237.84375 212.460938 238.292969 C 212.496094 239.015625 213.179688 239.695312 213.921875 239.625 C 214.703125 239.550781 215.257812 238.949219 215.257812 238.164062 C 215.257812 238.109375 215.253906 238.054688 215.25 238 C 215.410156 238.589844 216.066406 239.082031 216.679688 239.015625 C 217.5 238.941406 217.976562 238.34375 218.015625 237.558594 C 218.027344 237.015625 218.0625 236.472656 218.074219 235.933594 C 218.226562 236 218.394531 236.03125 218.582031 236.023438 C 218.582031 236.804688 218.597656 237.585938 218.59375 238.371094 C 218.597656 238.835938 218.597656 239.300781 218.582031 239.769531 C 218.578125 240.457031 219.199219 241.027344 219.855469 241.089844 C 220.550781 241.152344 221.183594 240.695312 221.339844 240.015625 C 221.484375 239.433594 221.605469 238.867188 221.710938 238.285156 C 222.308594 238.277344 223 237.855469 223.066406 237.21875 C 223.480469 233.136719 223.648438 229.011719 223.742188 224.90625 C 223.867188 219.738281 223.859375 214.574219 223.792969 209.414062 C 223.714844 203.863281 223.554688 198.296875 223.34375 192.753906 C 223.125 187.507812 222.851562 182.246094 222.484375 177.007812 C 222.183594 172.808594 221.847656 168.609375 221.324219 164.441406 C 221.265625 164.03125 221.210938 163.625 221.15625 163.21875 C 221.070312 162.589844 220.632812 161.972656 219.976562 161.890625 C 219.972656 161.855469 219.96875 161.800781 219.949219 161.761719 C 219.863281 161.039062 219.289062 160.355469 218.488281 160.429688 C 218.136719 160.464844 217.824219 160.609375 217.589844 160.824219 C 217.554688 160.417969 217.496094 159.992188 217.460938 159.582031 C 217.371094 158.859375 216.78125 158.175781 216 158.25 C 215.234375 158.320312 214.644531 158.925781 214.664062 159.707031 C 214.707031 161.496094 214.730469 163.285156 214.773438 165.070312 C 214.644531 163.863281 214.496094 162.660156 214.347656 161.457031 C 214.292969 161.011719 214.234375 160.585938 214.179688 160.140625 C 214.070312 159.417969 213.515625 158.734375 212.714844 158.808594 C 212.324219 158.84375 212.015625 159.007812 211.78125 159.242188 C 211.507812 158.972656 211.148438 158.824219 210.757812 158.859375 C 209.957031 158.933594 209.441406 159.53125 209.421875 160.316406 C 209.410156 160.894531 209.398438 161.472656 209.386719 162.070312 C 209.332031 162.074219 209.292969 162.074219 209.238281 162.078125 C 208.828125 162.113281 208.519531 162.277344 208.304688 162.511719 C 208.214844 161.730469 208.140625 160.933594 208.050781 160.15625 C 207.992188 159.730469 207.957031 159.320312 207.898438 158.894531 C 207.8125 158.191406 207.359375 157.652344 206.625 157.570312 C 206.117188 157.519531 205.605469 157.765625 205.328125 158.191406 C 205.238281 158.269531 205.148438 158.367188 205.078125 158.480469 C 205.0625 157.753906 205.03125 157.046875 205.019531 156.320312 C 204.996094 155.855469 204.996094 155.390625 204.972656 154.90625 C 204.960938 154.179688 204.257812 153.503906 203.511719 153.574219 C 202.730469 153.648438 202.160156 154.25 202.175781 155.03125 C 202.238281 159.355469 202.320312 163.675781 202.402344 167.996094 C 202.5 173.433594 202.59375 178.871094 202.691406 184.328125 C 202.785156 190.175781 202.863281 196.023438 202.9375 201.871094 C 203 207.425781 203.046875 212.976562 203.050781 218.53125 C 203.046875 223.003906 203.027344 227.496094 202.929688 231.972656 C 202.910156 232.421875 202.914062 232.871094 202.894531 233.316406 C 202.871094 234.046875 203.648438 234.71875 204.355469 234.648438 C 204.542969 234.640625 204.710938 234.597656 204.855469 234.515625 C 204.871094 234.886719 204.871094 235.277344 204.886719 235.652344 C 204.898438 235.910156 204.984375 236.148438 205.125 236.367188 C 205.21875 238.078125 205.316406 239.789062 205.429688 241.515625 C 205.46875 241.960938 205.492188 242.40625 205.527344 242.851562 C 205.582031 243.578125 206.226562 244.257812 206.992188 244.183594 C 207.714844 244.097656 208.378906 243.488281 208.308594 242.710938 Z M 215.089844 225.277344 C 214.957031 219.859375 214.789062 214.441406 214.601562 209.027344 C 214.484375 205.566406 214.347656 202.085938 214.207031 198.625 C 214.199219 198.402344 214.207031 198.160156 214.195312 197.9375 C 214.371094 200.183594 214.546875 202.414062 214.703125 204.660156 C 214.734375 205.3125 214.765625 205.980469 214.792969 206.632812 C 215.023438 212.121094 215.195312 217.609375 215.289062 223.085938 C 215.359375 227.519531 215.410156 231.972656 215.292969 236.414062 C 215.296875 236.503906 215.28125 236.597656 215.285156 236.691406 C 215.246094 232.875 215.167969 229.074219 215.089844 225.277344 Z M 215.089844 225.277344 " fill-opacity="1" fill-rule="nonzero"/></g></g></g></g></svg>